<svg width="89" height="14" viewBox="0 0 89 14" fill="none" xmlns="http://www.w3.org/2000/svg">
<path d="M3.704 0.792C3.61867 1.67733 3.57067 2.728 3.56 3.944C3.90133 3.496 4.248 3.18133 4.6 3C4.952 2.81867 5.39467 2.728 5.928 2.728C6.99467 2.728 7.84267 3.10133 8.472 3.848C9.10133 4.59467 9.416 5.58667 9.416 6.824C9.416 8.17867 9.08 9.26133 8.408 10.072C7.74667 10.872 6.85067 11.272 5.72 11.272C4.62133 11.272 3.82667 10.8613 3.336 10.04C3.37867 10.3493 3.4 10.52 3.4 10.552C3.4 10.936 3.21333 11.128 2.84 11.128C2.46667 11.128 2.28 10.8613 2.28 10.328C2.28 10.1787 2.28533 10.0667 2.296 9.992C2.296 9.74667 2.30133 9.48533 2.312 9.208L2.36 7.976L2.392 6.36L2.36 2.088C2.34933 1.69333 2.30667 1.42667 2.232 1.288C2.168 1.14933 2.05067 1.08 1.88 1.08C1.848 1.08 1.70933 1.10133 1.464 1.144C1.34667 1.16533 1.24533 1.176 1.16 1.176C0.797333 1.176 0.616 1.00533 0.616 0.664C0.616 0.312 0.829333 0.136 1.256 0.136C1.384 0.136 1.49067 0.141333 1.576 0.151999L1.96 0.2C2.13067 0.221333 2.26933 0.231999 2.376 0.231999C2.49333 0.231999 2.65867 0.215999 2.872 0.183999C3.08533 0.141333 3.24533 0.12 3.352 0.12C3.58667 0.12 3.704 0.269333 3.704 0.568V0.792ZM3.688 5.432C3.61333 5.77333 3.576 6.25333 3.576 6.872C3.576 7.928 3.66133 8.65333 3.832 9.048C4.16267 9.82667 4.792 10.216 5.72 10.216C6.456 10.216 7.03733 9.928 7.464 9.352C7.90133 8.76533 8.12 7.98133 8.12 7C8.12 5.99733 7.912 5.21333 7.496 4.648C7.09067 4.072 6.53067 3.784 5.816 3.784C5.31467 3.784 4.86133 3.944 4.456 4.264C4.05067 4.57333 3.79467 4.96267 3.688 5.432ZM17.5353 11.208C16.6606 11.208 16.1219 10.8293 15.9193 10.072C15.3753 10.872 14.5219 11.272 13.3593 11.272C12.4953 11.272 11.8019 11.0587 11.2793 10.632C10.7673 10.2053 10.5113 9.63467 10.5113 8.92C10.5113 8.03467 10.8899 7.384 11.6473 6.968C11.9353 6.808 12.1806 6.70667 12.3832 6.664C12.5966 6.61067 13.0179 6.54667 13.6473 6.472C14.5433 6.376 15.1246 6.24267 15.3913 6.072C15.6686 5.90133 15.8073 5.58667 15.8073 5.128C15.8073 4.69067 15.6526 4.34933 15.3433 4.104C15.0446 3.848 14.6233 3.72 14.0793 3.72C13.5993 3.72 13.1513 3.85333 12.7353 4.12C12.5753 4.22667 12.4953 4.33867 12.4953 4.456C12.4953 4.49867 12.5433 4.552 12.6393 4.616C12.7886 4.72267 12.8633 4.904 12.8633 5.16C12.8633 5.37333 12.7833 5.54933 12.6233 5.688C12.4739 5.82667 12.2819 5.896 12.0473 5.896C11.7699 5.896 11.5353 5.8 11.3433 5.608C11.1619 5.416 11.0713 5.18133 11.0713 4.904C11.0713 4.30667 11.3646 3.79467 11.9513 3.368C12.5486 2.94133 13.2686 2.728 14.1113 2.728C16.0526 2.728 17.0233 3.66133 17.0233 5.528V8.76C17.0233 9.272 17.0339 9.576 17.0553 9.672C17.1193 10.0453 17.3006 10.232 17.5993 10.232C17.9726 10.232 18.1593 9.89067 18.1593 9.208V8.424C18.1593 8.08267 18.3246 7.912 18.6553 7.912C19.0073 7.912 19.1833 8.168 19.1833 8.68V8.76L19.1673 9.672C19.1459 10.696 18.6019 11.208 17.5353 11.208ZM15.7593 8.024L15.7753 6.888C15.5406 7.10133 15.2899 7.25067 15.0233 7.336C14.7673 7.42133 14.3033 7.496 13.6313 7.56C12.4153 7.67733 11.8073 8.12533 11.8073 8.904C11.8073 9.30933 11.9513 9.62933 12.2393 9.864C12.5379 10.0987 12.9379 10.216 13.4393 10.216C14.1539 10.216 14.7139 10.024 15.1193 9.64C15.5353 9.24533 15.7486 8.70667 15.7593 8.024ZM22.1025 3.464V3.896C22.6572 3.11733 23.3985 2.728 24.3265 2.728C25.0732 2.728 25.6758 2.94133 26.1345 3.368C26.6038 3.784 26.8385 4.32267 26.8385 4.984C26.8385 5.45333 26.7212 5.83733 26.4865 6.136C26.2518 6.424 25.9425 6.568 25.5585 6.568C25.3132 6.568 25.1052 6.49333 24.9345 6.344C24.7638 6.19467 24.6785 6.01333 24.6785 5.8C24.6785 5.62933 24.7425 5.48 24.8705 5.352C24.9985 5.21333 25.1478 5.144 25.3185 5.144C25.3505 5.144 25.4198 5.16 25.5265 5.192C25.5905 5.064 25.6225 4.94667 25.6225 4.84C25.6225 4.53067 25.4838 4.26933 25.2065 4.056C24.9398 3.84267 24.6038 3.736 24.1985 3.736C23.3665 3.736 22.8118 4.10933 22.5345 4.856C22.3638 5.31467 22.2785 6.008 22.2785 6.936V7.992C22.2785 8.70667 22.2838 9.10667 22.2945 9.192C22.3478 9.8 22.5132 10.104 22.7905 10.104C22.9292 10.104 23.0732 10.0827 23.2225 10.04C23.3398 10.008 23.4412 9.992 23.5265 9.992C23.8678 9.992 24.0385 10.1627 24.0385 10.504C24.0385 10.8773 23.8198 11.064 23.3825 11.064H23.3185C23.1585 11.064 22.9132 11.0427 22.5825 11C22.2625 10.968 22.0225 10.952 21.8625 10.952C21.4358 10.952 21.0998 10.9627 20.8545 10.984L19.9585 11.064C19.5212 11.064 19.3025 10.8773 19.3025 10.504C19.3025 10.1733 19.5052 10.008 19.9105 10.008C20.0172 10.008 20.0972 10.0133 20.1505 10.024L20.3905 10.072C20.4972 10.0933 20.5718 10.104 20.6145 10.104C20.8812 10.104 21.0252 9.85867 21.0465 9.368L21.0785 8.552L21.0305 4.92C20.9985 4.29067 20.8385 3.976 20.5505 3.976C20.4652 3.976 20.3478 3.992 20.1985 4.024C20.0492 4.056 19.9318 4.072 19.8465 4.072C19.4945 4.072 19.3185 3.90133 19.3185 3.56C19.3185 3.18667 19.5478 3 20.0065 3C20.1132 3 20.2732 3.016 20.4865 3.048C20.6998 3.06933 20.8598 3.08 20.9665 3.08C21.0518 3.08 21.1905 3.06933 21.3825 3.048C21.4678 3.02667 21.5692 3.016 21.6865 3.016C21.9638 3.016 22.1025 3.16533 22.1025 3.464ZM29.6259 0.792C29.5405 1.67733 29.4925 2.728 29.4819 3.944C29.8232 3.496 30.1699 3.18133 30.5219 3C30.8739 2.81867 31.3165 2.728 31.8499 2.728C32.9165 2.728 33.7645 3.10133 34.3939 3.848C35.0232 4.59467 35.3379 5.58667 35.3379 6.824C35.3379 8.17867 35.0019 9.26133 34.3299 10.072C33.6685 10.872 32.7725 11.272 31.6419 11.272C30.5432 11.272 29.7485 10.8613 29.2579 10.04C29.3005 10.3493 29.3219 10.52 29.3219 10.552C29.3219 10.936 29.1352 11.128 28.7619 11.128C28.3885 11.128 28.2019 10.8613 28.2019 10.328C28.2019 10.1787 28.2072 10.0667 28.2179 9.992C28.2179 9.74667 28.2232 9.48533 28.2339 9.208L28.2819 7.976L28.3139 6.36L28.2819 2.088C28.2712 1.69333 28.2285 1.42667 28.1539 1.288C28.0899 1.14933 27.9725 1.08 27.8019 1.08C27.7699 1.08 27.6312 1.10133 27.3859 1.144C27.2685 1.16533 27.1672 1.176 27.0819 1.176C26.7192 1.176 26.5379 1.00533 26.5379 0.664C26.5379 0.312 26.7512 0.136 27.1779 0.136C27.3059 0.136 27.4125 0.141333 27.4979 0.151999L27.8819 0.2C28.0525 0.221333 28.1912 0.231999 28.2979 0.231999C28.4152 0.231999 28.5805 0.215999 28.7939 0.183999C29.0072 0.141333 29.1672 0.12 29.2739 0.12C29.5085 0.12 29.6259 0.269333 29.6259 0.568V0.792ZM29.6099 5.432C29.5352 5.77333 29.4979 6.25333 29.4979 6.872C29.4979 7.928 29.5832 8.65333 29.7539 9.048C30.0845 9.82667 30.7139 10.216 31.6419 10.216C32.3779 10.216 32.9592 9.928 33.3859 9.352C33.8232 8.76533 34.0419 7.98133 34.0419 7C34.0419 5.99733 33.8339 5.21333 33.4179 4.648C33.0125 4.072 32.4525 3.784 31.7379 3.784C31.2365 3.784 30.7832 3.944 30.3779 4.264C29.9725 4.57333 29.7165 4.96267 29.6099 5.432ZM43.8411 6.296C43.8411 6.70133 43.8145 6.952 43.7611 7.048C43.7078 7.13333 43.5531 7.176 43.2971 7.176H38.2091C38.0705 7.176 37.9798 7.19733 37.9371 7.24C37.8945 7.272 37.8731 7.33067 37.8731 7.416C37.8731 8.216 38.1131 8.88267 38.5931 9.416C39.0731 9.94933 39.6705 10.216 40.3851 10.216C40.8545 10.216 41.2811 10.088 41.6651 9.832C42.0598 9.576 42.3158 9.25067 42.4331 8.856L42.5771 8.392C42.6518 8.136 42.8278 8.008 43.1051 8.008C43.4998 8.008 43.6971 8.21067 43.6971 8.616C43.6971 9.30933 43.3451 9.928 42.6411 10.472C41.9371 11.0053 41.1371 11.272 40.2411 11.272C39.1211 11.272 38.2305 10.8987 37.5691 10.152C36.9078 9.39467 36.5771 8.38133 36.5771 7.112C36.5771 5.81067 36.9291 4.75467 37.6331 3.944C38.3371 3.13333 39.2545 2.728 40.3851 2.728C41.3878 2.728 42.2145 3.064 42.8651 3.736C43.5158 4.408 43.8411 5.26133 43.8411 6.296ZM38.0331 5.88C38.0331 6.02933 38.1505 6.104 38.3851 6.104H42.2091C42.4331 6.104 42.5451 6.02933 42.5451 5.88C42.5451 5.31467 42.3318 4.824 41.9051 4.408C41.4785 3.992 40.9771 3.784 40.4011 3.784C39.8038 3.784 39.2598 4.00267 38.7691 4.44C38.2785 4.86667 38.0331 5.34667 38.0331 5.88ZM47.4463 3.464V3.896C48.0009 3.11733 48.7423 2.728 49.6703 2.728C50.4169 2.728 51.0196 2.94133 51.4783 3.368C51.9476 3.784 52.1823 4.32267 52.1823 4.984C52.1823 5.45333 52.0649 5.83733 51.8303 6.136C51.5956 6.424 51.2863 6.568 50.9023 6.568C50.6569 6.568 50.4489 6.49333 50.2783 6.344C50.1076 6.19467 50.0223 6.01333 50.0223 5.8C50.0223 5.62933 50.0863 5.48 50.2143 5.352C50.3423 5.21333 50.4916 5.144 50.6623 5.144C50.6943 5.144 50.7636 5.16 50.8703 5.192C50.9343 5.064 50.9663 4.94667 50.9663 4.84C50.9663 4.53067 50.8276 4.26933 50.5503 4.056C50.2836 3.84267 49.9476 3.736 49.5423 3.736C48.7103 3.736 48.1556 4.10933 47.8783 4.856C47.7076 5.31467 47.6223 6.008 47.6223 6.936V7.992C47.6223 8.70667 47.6276 9.10667 47.6383 9.192C47.6916 9.8 47.8569 10.104 48.1343 10.104C48.2729 10.104 48.4169 10.0827 48.5663 10.04C48.6836 10.008 48.7849 9.992 48.8703 9.992C49.2116 9.992 49.3823 10.1627 49.3823 10.504C49.3823 10.8773 49.1636 11.064 48.7263 11.064H48.6623C48.5023 11.064 48.2569 11.0427 47.9263 11C47.6063 10.968 47.3663 10.952 47.2063 10.952C46.7796 10.952 46.4436 10.9627 46.1983 10.984L45.3023 11.064C44.8649 11.064 44.6463 10.8773 44.6463 10.504C44.6463 10.1733 44.8489 10.008 45.2543 10.008C45.3609 10.008 45.4409 10.0133 45.4943 10.024L45.7343 10.072C45.8409 10.0933 45.9156 10.104 45.9583 10.104C46.2249 10.104 46.3689 9.85867 46.3903 9.368L46.4223 8.552L46.3743 4.92C46.3423 4.29067 46.1823 3.976 45.8943 3.976C45.8089 3.976 45.6916 3.992 45.5423 4.024C45.3929 4.056 45.2756 4.072 45.1903 4.072C44.8383 4.072 44.6623 3.90133 44.6623 3.56C44.6623 3.18667 44.8916 3 45.3503 3C45.4569 3 45.6169 3.016 45.8303 3.048C46.0436 3.06933 46.2036 3.08 46.3103 3.08C46.3956 3.08 46.5343 3.06933 46.7263 3.048C46.8116 3.02667 46.9129 3.016 47.0303 3.016C47.3076 3.016 47.4463 3.16533 47.4463 3.464ZM56.2656 2.728C56.9803 2.728 57.5776 2.91467 58.0576 3.288V3.224C58.0576 2.82933 58.2283 2.632 58.5696 2.632C58.9216 2.632 59.0976 2.80267 59.0976 3.144C59.0976 3.208 59.087 3.368 59.0656 3.624C59.023 3.83733 59.0016 4.05067 59.0016 4.264C59.0016 4.392 59.0176 4.57867 59.0496 4.824C59.0923 5.06933 59.1136 5.256 59.1136 5.384C59.1136 5.78933 58.9376 5.992 58.5856 5.992C58.2443 5.992 58.0683 5.82133 58.0576 5.48L58.0416 4.952C58.031 4.632 57.8443 4.36 57.4816 4.136C57.1296 3.90133 56.7136 3.784 56.2336 3.784C55.743 3.784 55.3323 3.912 55.0016 4.168C54.671 4.41333 54.5056 4.72267 54.5056 5.096C54.5056 5.77867 54.975 6.184 55.9136 6.312L56.8416 6.44C58.655 6.68533 59.5616 7.43733 59.5616 8.696C59.5616 9.464 59.2683 10.088 58.6816 10.568C58.095 11.0373 57.327 11.272 56.3776 11.272C55.4923 11.272 54.7243 11.0213 54.0736 10.52C54.0843 10.6267 54.0896 10.728 54.0896 10.824C54.0896 11.208 53.9083 11.4 53.5456 11.4C53.151 11.4 52.9536 11.1813 52.9536 10.744C52.9536 10.8187 52.9856 10.5413 53.0496 9.912C53.071 9.76267 53.0816 9.61333 53.0816 9.464C53.0816 9.208 53.0603 8.968 53.0176 8.744C52.975 8.52 52.9536 8.344 52.9536 8.216C52.9536 7.84267 53.1243 7.656 53.4656 7.656C53.6896 7.656 53.8283 7.70933 53.8816 7.816C53.9456 7.92267 53.983 8.20533 53.9936 8.664C54.0043 9.12267 54.2443 9.496 54.7136 9.784C55.183 10.072 55.7803 10.216 56.5056 10.216C57.0283 10.216 57.4603 10.0827 57.8016 9.816C58.143 9.54933 58.3136 9.21333 58.3136 8.808C58.3136 8.08267 57.7376 7.66133 56.5856 7.544C55.487 7.42667 54.6496 7.21333 54.0736 6.904C53.4976 6.584 53.2096 6.02933 53.2096 5.24C53.2096 4.49333 53.4923 3.89067 54.0576 3.432C54.623 2.96267 55.359 2.728 56.2656 2.728ZM63.2766 0.695999L63.2126 3.8C63.6393 3.39467 64.0286 3.11733 64.3806 2.968C64.7326 2.808 65.1486 2.728 65.6286 2.728C66.546 2.728 67.282 2.98933 67.8366 3.512C68.3913 4.03467 68.6686 4.72267 68.6686 5.576V8.248C68.6686 8.87733 68.674 9.224 68.6846 9.288C68.7273 9.82133 68.866 10.088 69.1006 10.088C69.186 10.088 69.3086 10.0667 69.4686 10.024C69.5326 10.0133 69.618 10.008 69.7246 10.008C70.1193 10.008 70.3166 10.184 70.3166 10.536C70.3166 10.888 70.0606 11.064 69.5486 11.064C69.41 11.064 69.2073 11.048 68.9406 11.016C68.4926 10.9627 68.13 10.936 67.8526 10.936C67.5753 10.936 67.362 10.9467 67.2126 10.968C66.7646 11.032 66.4873 11.064 66.3806 11.064C66.1886 11.064 66.0286 11.0107 65.9006 10.904C65.7726 10.7867 65.7086 10.6427 65.7086 10.472C65.7086 10.3333 65.762 10.216 65.8686 10.12C65.986 10.024 66.1193 9.976 66.2686 9.976C66.386 9.976 66.5246 10.0027 66.6846 10.056C66.7806 10.088 66.8713 10.104 66.9566 10.104C67.2766 10.104 67.442 9.75733 67.4526 9.064C67.4526 8.936 67.458 8.68533 67.4686 8.312L67.4846 7.624V6.76C67.4846 5.672 67.378 4.94133 67.1646 4.568C66.8553 4.01333 66.3113 3.736 65.5326 3.736C64.69 3.736 64.0766 4.024 63.6926 4.6C63.426 4.99467 63.2873 5.62933 63.2766 6.504L63.2606 7.656C63.2606 7.72 63.2553 7.82667 63.2446 7.976C63.2446 8.11467 63.2446 8.216 63.2446 8.28C63.2446 8.888 63.25 9.24 63.2606 9.336C63.314 9.85867 63.4686 10.12 63.7246 10.12C63.81 10.12 63.9273 10.104 64.0766 10.072C64.2366 10.0293 64.354 10.008 64.4286 10.008C64.77 10.008 64.9406 10.1733 64.9406 10.504C64.9406 10.8773 64.706 11.064 64.2366 11.064C64.0873 11.064 63.8633 11.048 63.5646 11.016C63.1593 10.9733 62.8126 10.952 62.5246 10.952C62.3433 10.952 62.0926 10.968 61.7726 11C61.346 11.0427 61.074 11.064 60.9566 11.064C60.5193 11.064 60.3006 10.872 60.3006 10.488C60.3006 10.168 60.5033 10.008 60.9086 10.008C61.0473 10.008 61.1486 10.0187 61.2126 10.04C61.394 10.072 61.522 10.088 61.5966 10.088C61.7673 10.088 61.8793 9.928 61.9326 9.608C61.9966 9.27733 62.034 8.61067 62.0446 7.608L62.0606 4.744C62.0606 3.144 62.0286 2.136 61.9646 1.72C61.9006 1.29333 61.7513 1.08 61.5166 1.08C61.442 1.08 61.33 1.096 61.1806 1.128C61.0313 1.16 60.914 1.176 60.8286 1.176C60.466 1.176 60.2846 1.00533 60.2846 0.664C60.2846 0.514666 60.3486 0.386666 60.4766 0.28C60.6046 0.173333 60.7593 0.12 60.9406 0.12C60.994 0.12 61.1753 0.136 61.4846 0.167999C61.6873 0.189333 61.906 0.2 62.1406 0.2C62.2366 0.2 62.37 0.189333 62.5406 0.167999C62.7113 0.146666 62.834 0.136 62.9086 0.136C63.154 0.136 63.2766 0.312 63.2766 0.664V0.695999ZM74.6321 11.272C73.5121 11.272 72.6161 10.888 71.9441 10.12C71.2721 9.34133 70.9361 8.30133 70.9361 7C70.9361 5.69867 71.2721 4.664 71.9441 3.896C72.6268 3.11733 73.5388 2.728 74.6801 2.728C75.8428 2.728 76.7601 3.10667 77.4321 3.864C78.1041 4.62133 78.4401 5.65067 78.4401 6.952C78.4401 8.25333 78.0935 9.29867 77.4001 10.088C76.7068 10.8773 75.7841 11.272 74.6321 11.272ZM74.7121 3.784C73.9655 3.784 73.3788 4.04533 72.9521 4.568C72.5255 5.09067 72.2908 5.832 72.2481 6.792C72.2481 6.792 72.2481 6.86133 72.2481 7C72.2481 8.00267 72.4561 8.792 72.8721 9.368C73.2988 9.93333 73.8908 10.216 74.6481 10.216C75.4268 10.216 76.0348 9.93333 76.4721 9.368C76.9201 8.792 77.1441 7.99733 77.1441 6.984C77.1441 4.85067 76.3335 3.784 74.7121 3.784ZM82.1185 3.464V3.976C82.7158 3.144 83.5318 2.728 84.5665 2.728C85.6332 2.728 86.4812 3.096 87.1105 3.832C87.7398 4.568 88.0545 5.56533 88.0545 6.824C88.0545 8.17867 87.7185 9.26133 87.0465 10.072C86.3852 10.872 85.4945 11.272 84.3745 11.272C83.4465 11.272 82.6945 10.9467 82.1185 10.296V11.624C82.1185 12.0293 82.1292 12.2907 82.1505 12.408C82.2145 12.7387 82.3692 12.904 82.6145 12.904C82.6892 12.904 82.8012 12.888 82.9505 12.856C83.0998 12.824 83.2118 12.808 83.2865 12.808C83.6278 12.808 83.7985 12.984 83.7985 13.336C83.7985 13.688 83.5745 13.864 83.1265 13.864C82.9665 13.864 82.7265 13.8427 82.4065 13.8C82.1718 13.768 81.8198 13.752 81.3505 13.752C81.0945 13.752 80.8812 13.7627 80.7105 13.784C80.2838 13.8373 80.0012 13.864 79.8625 13.864C79.6812 13.864 79.5265 13.8053 79.3985 13.688C79.2705 13.5813 79.2065 13.4533 79.2065 13.304C79.2065 12.9627 79.3878 12.792 79.7505 12.792C79.8145 12.792 79.9158 12.808 80.0545 12.84C80.2358 12.8827 80.3692 12.904 80.4545 12.904C80.6572 12.904 80.7798 12.7973 80.8225 12.584C80.8758 12.3813 80.9078 11.8053 80.9185 10.856L80.9345 4.68C80.9238 4.18933 80.7852 3.944 80.5185 3.944C80.4438 3.944 80.3265 3.96533 80.1665 4.008C80.0172 4.04 79.8998 4.056 79.8145 4.056C79.4198 4.056 79.2225 3.88 79.2225 3.528C79.2225 3.18667 79.4572 3.016 79.9265 3.016C80.0438 3.016 80.1718 3.02133 80.3105 3.032C80.5772 3.05333 80.7745 3.064 80.9025 3.064C80.9985 3.064 81.1372 3.05867 81.3185 3.048C81.4998 3.02667 81.6332 3.016 81.7185 3.016C81.9852 3.016 82.1185 3.16533 82.1185 3.464ZM82.3585 5.416C82.2625 5.832 82.2092 6.33867 82.1985 6.936C82.1985 6.97867 82.1932 7.05867 82.1825 7.176C82.1825 7.272 82.1825 7.34667 82.1825 7.4C82.1825 8.11467 82.2412 8.63733 82.3585 8.968C82.4758 9.288 82.7052 9.576 83.0465 9.832C83.3985 10.088 83.8305 10.216 84.3425 10.216C85.1105 10.216 85.7025 9.93867 86.1185 9.384C86.5452 8.81867 86.7585 8.01867 86.7585 6.984C86.7585 4.85067 86.0012 3.784 84.4865 3.784C83.9745 3.784 83.5158 3.93867 83.1105 4.248C82.7158 4.55733 82.4652 4.94667 82.3585 5.416Z" fill="black"/>
</svg>
