<svg width="10" height="20" viewBox="0 0 10 20" fill="none" xmlns="http://www.w3.org/2000/svg">
<path d="M9.61358 5.41712C9.30776 5.72149 8.81311 5.72032 8.50873 5.4145L5.78124 2.6738V19.219C5.78124 19.6505 5.43147 20.0002 4.99999 20.0002C4.56851 20.0002 4.21874 19.6505 4.21874 19.219V2.67376L1.49125 5.41454C1.18687 5.72036 0.692223 5.72153 0.386403 5.41716C0.0805442 5.11274 0.0794116 4.6181 0.383747 4.31227L4.44624 0.230087C4.44648 0.229815 4.44675 0.22962 4.44698 0.229385C4.75136 -0.075655 5.24761 -0.0766315 5.553 0.229345C5.55323 0.229618 5.5535 0.229815 5.55374 0.230049L9.61623 4.31224C9.92053 4.61802 9.91947 5.11271 9.61358 5.41712Z" fill="white"/>
</svg>
