<svg width="20" height="20" viewBox="0 0 20 20" fill="none" xmlns="http://www.w3.org/2000/svg">
<path d="M10.3882 0C6.31427 0 3.00006 3.31421 3.00006 7.38809C3.00006 8.72925 3.60154 10.1717 3.62675 10.2325C3.82101 10.6936 4.20432 11.4098 4.48072 11.8296L9.54635 19.505C9.75365 19.8196 10.0605 20 10.3882 20C10.7158 20 11.0227 19.8196 11.23 19.5054L16.296 11.8296C16.5729 11.4098 16.9557 10.6936 17.15 10.2325C17.1752 10.1721 17.7762 8.72968 17.7762 7.38809C17.7762 3.31421 14.462 0 10.3882 0ZM16.3486 9.89526C16.1752 10.3086 15.8184 10.9748 15.5702 11.3512L10.5042 19.0269C10.4042 19.1786 10.3725 19.1786 10.2726 19.0269L5.20649 11.3512C4.95834 10.9748 4.60154 10.3081 4.42814 9.89483C4.42075 9.87701 3.86925 8.54933 3.86925 7.38809C3.86925 3.79357 6.79363 0.869187 10.3882 0.869187C13.9827 0.869187 16.9071 3.79357 16.9071 7.38809C16.9071 8.55106 16.3543 9.88223 16.3486 9.89526Z" fill="#D98F38"/>
<path d="M10.3881 3.47717C8.23126 3.47717 6.47681 5.23206 6.47681 7.38852C6.47681 9.54497 8.23126 11.2999 10.3881 11.2999C12.545 11.2999 14.2995 9.54497 14.2995 7.38852C14.2995 5.23206 12.545 3.47717 10.3881 3.47717ZM10.3881 10.4307C8.71105 10.4307 7.34599 9.06605 7.34599 7.38852C7.34599 5.71099 8.71105 4.34636 10.3881 4.34636C12.0652 4.34636 13.4303 5.71099 13.4303 7.38852C13.4303 9.06605 12.0652 10.4307 10.3881 10.4307Z" fill="#D98F38"/>
</svg>
