<svg width="20" height="20" viewBox="0 0 20 20" fill="none" xmlns="http://www.w3.org/2000/svg">
<path d="M18.311 16.312H1.68884C1.38439 16.3116 1.0925 16.1905 0.877214 15.9752C0.661928 15.7599 0.540824 15.468 0.540466 15.1636V4.52872C0.540824 4.22429 0.661937 3.93243 0.87723 3.71719C1.09252 3.50195 1.38441 3.3809 1.68884 3.38062H18.3105C18.615 3.38076 18.907 3.50174 19.1224 3.717C19.3378 3.93225 19.459 4.2242 19.4594 4.52872V15.1636C19.459 15.468 19.3379 15.7599 19.1226 15.9752C18.9074 16.1905 18.6155 16.3116 18.311 16.312ZM1.68884 3.92116C1.52773 3.9213 1.37324 3.98535 1.25929 4.09925C1.14534 4.21315 1.08122 4.36761 1.08101 4.52872V15.1636C1.08122 15.3247 1.14533 15.4792 1.25928 15.5932C1.37322 15.7071 1.5277 15.7712 1.68884 15.7714H18.3105C18.4717 15.7714 18.6263 15.7073 18.7404 15.5933C18.8544 15.4794 18.9186 15.3248 18.9188 15.1636V4.52872C18.9186 4.36761 18.8545 4.21315 18.7406 4.09925C18.6266 3.98535 18.4721 3.9213 18.311 3.92116H1.68884Z" fill="#D98F38"/>
<path d="M9.99994 10.5763C9.73011 10.5769 9.46743 10.4896 9.25156 10.3277L0.953995 4.08121C0.896651 4.03821 0.858741 3.97418 0.848604 3.90322C0.838467 3.83226 0.856933 3.76018 0.899941 3.70284C0.942949 3.64549 1.00698 3.60758 1.07794 3.59744C1.1489 3.58731 1.22098 3.60577 1.27832 3.64878L9.57562 9.89552C9.69783 9.98685 9.8463 10.0362 9.99886 10.0362C10.1514 10.0362 10.2999 9.98685 10.4221 9.89552L18.7208 3.64878C18.7491 3.62749 18.7815 3.61199 18.8158 3.60318C18.8502 3.59437 18.886 3.59242 18.9211 3.59744C18.9563 3.60246 18.9901 3.61435 19.0206 3.63244C19.0512 3.65052 19.0778 3.67444 19.0991 3.70284C19.1204 3.73123 19.1359 3.76354 19.1447 3.79792C19.1535 3.8323 19.1555 3.86808 19.1505 3.90322C19.1454 3.93835 19.1336 3.97216 19.1155 4.0027C19.0974 4.03324 19.0735 4.05992 19.0451 4.08121L10.7478 10.328C10.532 10.4896 10.2696 10.5768 9.99994 10.5763Z" fill="#D98F38"/>
<path d="M0.995714 15.9711C0.940344 15.9711 0.8863 15.9542 0.840892 15.9225C0.795484 15.8908 0.760903 15.8459 0.741827 15.7939C0.722751 15.742 0.7201 15.6854 0.734234 15.6318C0.748367 15.5783 0.778602 15.5304 0.820849 15.4946L8.2749 9.17919C8.3296 9.13284 8.40046 9.11013 8.4719 9.11603C8.54334 9.12194 8.60951 9.15598 8.65585 9.21067C8.70219 9.26536 8.72491 9.33622 8.719 9.40767C8.7131 9.47911 8.67905 9.54528 8.62436 9.59162L1.17031 15.907C1.1216 15.9485 1.05969 15.9712 0.995714 15.9711Z" fill="#D98F38"/>
<path d="M19.0043 15.9712C18.9403 15.9713 18.8784 15.9486 18.8297 15.9071L11.3756 9.59174C11.3486 9.56879 11.3263 9.54074 11.31 9.50917C11.2938 9.47761 11.2839 9.44316 11.281 9.40779C11.2781 9.37241 11.2822 9.33681 11.293 9.30301C11.3038 9.26921 11.3212 9.23787 11.3442 9.21079C11.3671 9.18371 11.3952 9.16142 11.4267 9.14518C11.4583 9.12894 11.4927 9.11908 11.5281 9.11615C11.5635 9.11323 11.5991 9.1173 11.6329 9.12814C11.6667 9.13897 11.698 9.15636 11.7251 9.17931L19.1792 15.4947C19.2214 15.5305 19.2516 15.5784 19.2658 15.6319C19.2799 15.6855 19.2773 15.742 19.2582 15.794C19.2391 15.846 19.2045 15.8909 19.1591 15.9226C19.1137 15.9542 19.0597 15.9712 19.0043 15.9712Z" fill="#D98F38"/>
</svg>
