<svg width="20" height="21" viewBox="0 0 20 21" fill="none" xmlns="http://www.w3.org/2000/svg">
<path d="M4.05291 13.5193C6.03304 15.8773 8.41667 17.7339 11.1373 19.0477C12.1731 19.5367 13.5583 20.1169 15.1017 20.2163C15.1974 20.2205 15.2889 20.2246 15.3846 20.2246C16.4204 20.2246 17.2524 19.8682 17.9304 19.1347C17.9346 19.1305 17.9429 19.1222 17.9471 19.114C18.1883 18.8239 18.4629 18.5628 18.7499 18.2851C18.9455 18.0986 19.1451 17.9038 19.3365 17.7049C20.2226 16.7849 20.2226 15.6162 19.3282 14.7252L16.828 12.2346C16.4037 11.7953 15.8962 11.5632 15.3638 11.5632C14.8313 11.5632 14.3196 11.7953 13.8828 12.2304L12.3936 13.714C12.2563 13.6353 12.1149 13.5648 11.9817 13.4985C11.8153 13.4157 11.6614 13.3369 11.5241 13.2499C10.168 12.392 8.93667 11.2731 7.75941 9.83505C7.16454 9.08495 6.76518 8.45503 6.48647 7.81267C6.8775 7.46042 7.24358 7.09158 7.59717 6.73103C7.72197 6.60256 7.85092 6.47409 7.97988 6.34562C8.42915 5.89804 8.67043 5.38002 8.67043 4.8537C8.67043 4.32739 8.43331 3.80936 7.97988 3.36178L6.74022 2.12681C6.59463 1.98176 6.45735 1.84085 6.31591 1.69581C6.04136 1.414 5.75432 1.1239 5.47145 0.862819C5.04297 0.444253 4.53962 0.224609 4.00715 0.224609C3.47884 0.224609 2.97133 0.444253 2.52622 0.866963L0.970403 2.4169C0.404653 2.98052 0.084338 3.66431 0.0177792 4.45586C-0.0612595 5.44633 0.121777 6.49896 0.596009 7.77123C1.324 9.73974 2.42222 11.5673 4.05291 13.5193ZM1.0328 4.54289C1.08272 3.9917 1.29488 3.5317 1.69423 3.13385L3.24172 1.5922C3.483 1.36013 3.74924 1.23994 4.00715 1.23994C4.26091 1.23994 4.51882 1.36013 4.75594 1.60049C5.03465 1.85743 5.29673 2.12681 5.5796 2.41276C5.72104 2.5578 5.86664 2.70285 6.01224 2.85204L7.25189 4.08702C7.50981 4.34396 7.64293 4.60505 7.64293 4.86199C7.64293 5.11893 7.50981 5.38002 7.25189 5.63696C7.12294 5.76543 6.99398 5.89805 6.86502 6.02652C6.47815 6.41607 6.11623 6.78491 5.71688 7.13717C5.70856 7.14545 5.7044 7.1496 5.69608 7.15789C5.35081 7.50186 5.40489 7.82925 5.48809 8.0779C5.49225 8.09034 5.49641 8.09863 5.50057 8.11106C5.82088 8.87774 6.26599 9.60712 6.9607 10.4774C8.20868 12.0108 9.52322 13.2002 10.9709 14.116C11.1497 14.2321 11.3411 14.3232 11.52 14.4144C11.6864 14.4973 11.8403 14.576 11.9776 14.6631C11.9942 14.6714 12.0067 14.6796 12.0233 14.6879C12.1606 14.7584 12.2937 14.7915 12.4268 14.7915C12.7596 14.7915 12.976 14.5802 13.0467 14.5097L14.6025 12.9598C14.8438 12.7194 15.1058 12.591 15.3638 12.591C15.6799 12.591 15.9378 12.7857 16.1001 12.9598L18.6085 15.4546C19.1077 15.9519 19.1035 16.4907 18.596 17.017C18.4213 17.2035 18.2383 17.3817 18.0427 17.5682C17.7516 17.85 17.4479 18.1401 17.1733 18.4675C16.6949 18.9813 16.125 19.2217 15.3887 19.2217C15.318 19.2217 15.2431 19.2176 15.1724 19.2134C13.8079 19.1264 12.5392 18.5959 11.5865 18.1442C8.99906 16.8968 6.72774 15.1272 4.8433 12.8811C3.29164 11.0203 2.2475 9.28802 1.55695 7.43141C1.12848 6.29175 0.966243 5.37587 1.0328 4.54289Z" fill="#D98F38"/>
</svg>
