<svg width="20" height="20" viewBox="0 0 20 20" fill="none" xmlns="http://www.w3.org/2000/svg">
<path d="M9.99998 0C4.4861 0 0 4.4861 0 9.99998C0 15.5139 4.4861 20 9.99998 20C15.5139 20 20 15.5139 20 9.99998C20 4.4861 15.5139 0 9.99998 0ZM9.99998 19.1304C4.9652 19.1304 0.869551 15.0348 0.869551 9.99998C0.869551 4.9652 4.9652 0.869551 9.99998 0.869551C15.0348 0.869551 19.1304 4.9652 19.1304 9.99998C19.1304 15.0348 15.0348 19.1304 9.99998 19.1304Z" fill="#D98F38"/>
<path d="M14.2208 13.606L10.4348 9.81993V3.04344C10.4348 2.80344 10.24 2.60864 9.99998 2.60864C9.75998 2.60864 9.56519 2.80344 9.56519 3.04344V9.99997C9.56519 10.1156 9.61129 10.2261 9.69216 10.3078L13.6052 14.2208C13.6904 14.3052 13.8017 14.3478 13.913 14.3478C14.0243 14.3478 14.1356 14.3052 14.2208 14.2208C14.3904 14.0512 14.3904 13.7756 14.2208 13.606Z" fill="#D98F38"/>
</svg>
