<svg width="23" height="23" viewBox="0 0 23 23" fill="none" xmlns="http://www.w3.org/2000/svg">
<path d="M11.9375 6.00977C8.8125 6.00977 6.32227 8.54883 6.32227 11.625C6.32227 14.75 8.8125 17.2402 11.9375 17.2402C15.0137 17.2402 17.5527 14.75 17.5527 11.625C17.5527 8.54883 15.0137 6.00977 11.9375 6.00977ZM11.9375 15.2871C9.93555 15.2871 8.27539 13.6758 8.27539 11.625C8.27539 9.62305 9.88672 8.01172 11.9375 8.01172C13.9395 8.01172 15.5508 9.62305 15.5508 11.625C15.5508 13.6758 13.9395 15.2871 11.9375 15.2871ZM19.0664 5.81445C19.0664 5.08203 18.4805 4.49609 17.748 4.49609C17.0156 4.49609 16.4297 5.08203 16.4297 5.81445C16.4297 6.54688 17.0156 7.13281 17.748 7.13281C18.4805 7.13281 19.0664 6.54688 19.0664 5.81445ZM22.7773 7.13281C22.6797 5.375 22.2891 3.8125 21.0195 2.54297C19.75 1.27344 18.1875 0.882812 16.4297 0.785156C14.623 0.6875 9.20312 0.6875 7.39648 0.785156C5.63867 0.882812 4.125 1.27344 2.80664 2.54297C1.53711 3.8125 1.14648 5.375 1.04883 7.13281C0.951172 8.93945 0.951172 14.3594 1.04883 16.166C1.14648 17.9238 1.53711 19.4375 2.80664 20.7559C4.125 22.0254 5.63867 22.416 7.39648 22.5137C9.20312 22.6113 14.623 22.6113 16.4297 22.5137C18.1875 22.416 19.75 22.0254 21.0195 20.7559C22.2891 19.4375 22.6797 17.9238 22.7773 16.166C22.875 14.3594 22.875 8.93945 22.7773 7.13281ZM20.4336 18.0703C20.0918 19.0469 19.3105 19.7793 18.3828 20.1699C16.918 20.7559 13.5 20.6094 11.9375 20.6094C10.3262 20.6094 6.9082 20.7559 5.49219 20.1699C4.51562 19.7793 3.7832 19.0469 3.39258 18.0703C2.80664 16.6543 2.95312 13.2363 2.95312 11.625C2.95312 10.0625 2.80664 6.64453 3.39258 5.17969C3.7832 4.25195 4.51562 3.51953 5.49219 3.12891C6.9082 2.54297 10.3262 2.68945 11.9375 2.68945C13.5 2.68945 16.918 2.54297 18.3828 3.12891C19.3105 3.4707 20.043 4.25195 20.4336 5.17969C21.0195 6.64453 20.873 10.0625 20.873 11.625C20.873 13.2363 21.0195 16.6543 20.4336 18.0703Z" fill="black"/>
</svg>
