<svg width="20" height="20" viewBox="0 0 20 20" fill="none" xmlns="http://www.w3.org/2000/svg">
<path d="M9.99997 0C5.92609 0 2.61188 3.31421 2.61188 7.38809C2.61188 8.72925 3.21336 10.1717 3.23856 10.2325C3.43282 10.6936 3.81614 11.4098 4.09254 11.8296L9.15816 19.505C9.36546 19.8196 9.67229 20 9.99997 20C10.3277 20 10.6345 19.8196 10.8418 19.5054L15.9078 11.8296C16.1847 11.4098 16.5675 10.6936 16.7618 10.2325C16.787 10.1721 17.3881 8.72968 17.3881 7.38809C17.3881 3.31421 14.0739 0 9.99997 0ZM15.9604 9.89526C15.787 10.3086 15.4302 10.9748 15.1821 11.3512L10.116 19.0269C10.016 19.1786 9.98432 19.1786 9.88437 19.0269L4.81831 11.3512C4.57016 10.9748 4.21335 10.3081 4.03995 9.89483C4.03256 9.87701 3.48106 8.54933 3.48106 7.38809C3.48106 3.79357 6.40545 0.869187 9.99997 0.869187C13.5945 0.869187 16.5189 3.79357 16.5189 7.38809C16.5189 8.55106 15.9661 9.88222 15.9604 9.89526Z" fill="black"/>
<path d="M9.99996 3.47717C7.84308 3.47717 6.08862 5.23206 6.08862 7.38852C6.08862 9.54497 7.84308 11.2999 9.99996 11.2999C12.1569 11.2999 13.9113 9.54497 13.9113 7.38852C13.9113 5.23206 12.1569 3.47717 9.99996 3.47717ZM9.99996 10.4307C8.32287 10.4307 6.95781 9.06605 6.95781 7.38852C6.95781 5.71099 8.32287 4.34636 9.99996 4.34636C11.6771 4.34636 13.0421 5.71099 13.0421 7.38852C13.0421 9.06605 11.6771 10.4307 9.99996 10.4307Z" fill="black"/>
</svg>
