<svg width="173" height="64" viewBox="0 0 173 64" fill="none" xmlns="http://www.w3.org/2000/svg">
<path d="M9.68 15.48L12.96 32.4L17.08 11.6C17.4267 9.78667 18.32 8.88 19.76 8.88C21.28 8.88 22.1867 9.68 22.48 11.28L26.48 32.68L29.88 16.08C30.12 14.9067 30.24 14.0133 30.24 13.4C30.24 12.3067 29.68 11.76 28.56 11.76C28.32 11.76 27.9733 11.7733 27.52 11.8C27.0667 11.8267 26.72 11.84 26.48 11.84C25.3333 11.84 24.76 11.3867 24.76 10.48C24.76 9.6 25.32 9.16 26.44 9.16C26.8667 9.16 27.3067 9.18667 27.76 9.24C29.9467 9.50667 31.3867 9.64 32.08 9.64C32.6133 9.64 33.4 9.56 34.44 9.4C35.5067 9.24 36.3067 9.16 36.84 9.16C37.8267 9.16 38.32 9.62667 38.32 10.56C38.32 11.4133 37.84 11.84 36.88 11.84C36.72 11.84 36.48 11.8267 36.16 11.8C35.84 11.7467 35.6 11.72 35.44 11.72C34.88 11.72 34.4667 11.9333 34.2 12.36C33.96 12.7867 33.6667 13.7467 33.32 15.24L28.84 34.32C28.4933 35.7867 27.6667 36.52 26.36 36.52C24.9733 36.52 24.1067 35.6133 23.76 33.8L19.72 12.64L15.28 34.36C14.9867 35.8 14.2267 36.52 13 36.52C11.7467 36.52 10.9467 35.7867 10.6 34.32L5.84 14.4C5.6 13.3867 5.29333 12.7067 4.92 12.36C4.57333 11.9867 4.01333 11.8 3.24 11.8H2.96L2.08 11.88C1.22667 11.88 0.8 11.44 0.8 10.56C0.8 9.62667 1.26667 9.16 2.2 9.16C2.57333 9.16 3 9.2 3.48 9.28C4.92 9.52 6.32 9.64 7.68 9.64C8.32 9.64 9.78667 9.50667 12.08 9.24C12.48 9.18667 12.8667 9.16 13.24 9.16C14.2 9.16 14.68 9.6 14.68 10.48C14.68 11.44 14.0933 11.92 12.92 11.92C12.68 11.92 12.3067 11.8933 11.8 11.84C11.32 11.7867 10.96 11.76 10.72 11.76C9.78667 11.76 9.32 12.2 9.32 13.08C9.32 13.4 9.36 13.7733 9.44 14.2L9.68 15.48ZM50.1338 36.88C46.5871 36.88 43.7738 35.6 41.6938 33.04C39.6404 30.48 38.6138 27.0133 38.6138 22.64C38.6138 18.2133 39.6538 14.7467 41.7338 12.24C43.8138 9.70667 46.6804 8.44 50.3338 8.44C53.8271 8.44 56.6004 9.66667 58.6538 12.12C60.7338 14.5733 61.7738 17.8933 61.7738 22.08C61.7738 26.6133 60.7204 30.2133 58.6138 32.88C56.5338 35.5467 53.7071 36.88 50.1338 36.88ZM50.2138 11.32C47.6538 11.32 45.6671 12.3067 44.2538 14.28C42.8404 16.2533 42.1338 19.0267 42.1338 22.6C42.1338 26.2267 42.8404 29.04 44.2538 31.04C45.6671 33.0133 47.6404 34 50.1738 34C52.6538 34 54.6138 32.9733 56.0538 30.92C57.5204 28.84 58.2538 26.0267 58.2538 22.48C58.2538 18.9067 57.5604 16.16 56.1738 14.24C54.7871 12.2933 52.8004 11.32 50.2138 11.32ZM76.3447 36.88C72.798 36.88 69.9847 35.6 67.9047 33.04C65.8514 30.48 64.8247 27.0133 64.8247 22.64C64.8247 18.2133 65.8647 14.7467 67.9447 12.24C70.0247 9.70667 72.8914 8.44 76.5447 8.44C80.038 8.44 82.8114 9.66667 84.8647 12.12C86.9447 14.5733 87.9847 17.8933 87.9847 22.08C87.9847 26.6133 86.9314 30.2133 84.8247 32.88C82.7447 35.5467 79.918 36.88 76.3447 36.88ZM76.4247 11.32C73.8647 11.32 71.878 12.3067 70.4647 14.28C69.0514 16.2533 68.3447 19.0267 68.3447 22.6C68.3447 26.2267 69.0514 29.04 70.4647 31.04C71.878 33.0133 73.8514 34 76.3847 34C78.8647 34 80.8247 32.9733 82.2647 30.92C83.7314 28.84 84.4647 26.0267 84.4647 22.48C84.4647 18.9067 83.7714 16.16 82.3847 14.24C80.998 12.2933 79.0114 11.32 76.4247 11.32ZM96.9956 35.84H95.8756C95.4223 35.84 94.7156 35.8933 93.7556 36C92.7956 36.1067 92.1156 36.16 91.7156 36.16H91.5956C91.0356 36.16 90.7556 36 90.7556 35.68C90.7556 35.28 91.0356 35.08 91.5956 35.08C91.6756 35.08 92.009 35.1067 92.5956 35.16C93.1823 35.2133 93.5956 35.24 93.8356 35.24C94.6623 35.24 95.209 34.9733 95.4756 34.44C95.6623 34.0933 95.769 33.4533 95.7956 32.52L95.8756 29.52L95.7956 12.8C95.769 11.8667 95.6623 11.2267 95.4756 10.88C95.209 10.3467 94.6623 10.08 93.8356 10.08C93.5956 10.08 93.2223 10.1067 92.7156 10.16C92.2356 10.1867 91.8756 10.2 91.6356 10.2C91.049 10.2 90.7556 10.0267 90.7556 9.68C90.7556 9.33333 91.0356 9.16 91.5956 9.16H91.7156L92.6356 9.24C94.4756 9.4 95.5556 9.48 95.8756 9.48H96.9956C97.289 9.48 98.4356 9.41333 100.436 9.28C101.636 9.2 102.716 9.16 103.676 9.16C106.102 9.16 108.049 9.42667 109.516 9.96C111.009 10.4667 112.276 11.3067 113.316 12.48C115.582 15.0667 116.716 18.4933 116.716 22.76C116.716 26.04 115.996 28.8533 114.556 31.2C113.116 33.52 111.209 34.9867 108.836 35.6C107.396 35.9733 105.636 36.16 103.556 36.16C102.809 36.16 101.702 36.1067 100.236 36C98.7956 35.8933 97.7156 35.84 96.9956 35.84ZM103.236 10.08C102.249 10.08 101.516 10.1067 101.036 10.16L98.9156 10.4C98.249 10.48 97.7956 10.6 97.5556 10.76C97.3423 10.92 97.209 11.2133 97.1556 11.64C97.049 12.6267 96.9956 13.8133 96.9956 15.2V32.84C96.9956 33.9333 97.329 34.6133 97.9956 34.88C98.689 35.1467 100.462 35.28 103.316 35.28C105.662 35.28 107.476 35.08 108.756 34.68C110.622 34.0933 112.142 32.9467 113.316 31.24C114.756 29.16 115.476 26.4267 115.476 23.04C115.476 19.76 114.902 17.0667 113.756 14.96C112.636 12.8533 111.022 11.48 108.916 10.84C107.289 10.3333 105.396 10.08 103.236 10.08ZM131.937 8.56C135.404 8.56 138.217 9.86667 140.377 12.48C142.537 15.0667 143.617 18.4667 143.617 22.68C143.617 26.8667 142.577 30.2667 140.497 32.88C138.417 35.4667 135.697 36.76 132.337 36.76C128.791 36.76 125.937 35.48 123.777 32.92C121.644 30.3333 120.577 26.9333 120.577 22.72C120.577 18.5333 121.631 15.1333 123.737 12.52C125.844 9.88 128.577 8.56 131.937 8.56ZM132.097 35.88C135.191 35.88 137.671 34.68 139.537 32.28C141.431 29.8533 142.377 26.6667 142.377 22.72C142.377 18.8267 141.391 15.6533 139.417 13.2C137.471 10.72 134.951 9.48 131.857 9.48C128.871 9.48 126.444 10.7067 124.577 13.16C122.711 15.5867 121.777 18.7333 121.777 22.6C121.777 26.6267 122.711 29.8533 124.577 32.28C126.471 34.68 128.977 35.88 132.097 35.88ZM158.851 8.56C162.318 8.56 165.131 9.86667 167.291 12.48C169.451 15.0667 170.531 18.4667 170.531 22.68C170.531 26.8667 169.491 30.2667 167.411 32.88C165.331 35.4667 162.611 36.76 159.251 36.76C155.705 36.76 152.851 35.48 150.691 32.92C148.558 30.3333 147.491 26.9333 147.491 22.72C147.491 18.5333 148.545 15.1333 150.651 12.52C152.758 9.88 155.491 8.56 158.851 8.56ZM159.011 35.88C162.105 35.88 164.585 34.68 166.451 32.28C168.345 29.8533 169.291 26.6667 169.291 22.72C169.291 18.8267 168.305 15.6533 166.331 13.2C164.385 10.72 161.865 9.48 158.771 9.48C155.785 9.48 153.358 10.7067 151.491 13.16C149.625 15.5867 148.691 18.7333 148.691 22.6C148.691 26.6267 149.625 29.8533 151.491 32.28C153.385 34.68 155.891 35.88 159.011 35.88Z" fill="black"/>
<path d="M45.704 49.792C45.6187 50.6773 45.5707 51.728 45.56 52.944C45.9013 52.496 46.248 52.1813 46.6 52C46.952 51.8187 47.3947 51.728 47.928 51.728C48.9947 51.728 49.8427 52.1013 50.472 52.848C51.1013 53.5947 51.416 54.5867 51.416 55.824C51.416 57.1787 51.08 58.2613 50.408 59.072C49.7467 59.872 48.8507 60.272 47.72 60.272C46.6213 60.272 45.8267 59.8613 45.336 59.04C45.3787 59.3493 45.4 59.52 45.4 59.552C45.4 59.936 45.2133 60.128 44.84 60.128C44.4667 60.128 44.28 59.8613 44.28 59.328C44.28 59.1787 44.2853 59.0667 44.296 58.992C44.296 58.7467 44.3013 58.4853 44.312 58.208L44.36 56.976L44.392 55.36L44.36 51.088C44.3493 50.6933 44.3067 50.4267 44.232 50.288C44.168 50.1493 44.0507 50.08 43.88 50.08C43.848 50.08 43.7093 50.1013 43.464 50.144C43.3467 50.1653 43.2453 50.176 43.16 50.176C42.7973 50.176 42.616 50.0053 42.616 49.664C42.616 49.312 42.8293 49.136 43.256 49.136C43.384 49.136 43.4907 49.1413 43.576 49.152L43.96 49.2C44.1307 49.2213 44.2693 49.232 44.376 49.232C44.4933 49.232 44.6587 49.216 44.872 49.184C45.0853 49.1413 45.2453 49.12 45.352 49.12C45.5867 49.12 45.704 49.2693 45.704 49.568V49.792ZM45.688 54.432C45.6133 54.7733 45.576 55.2533 45.576 55.872C45.576 56.928 45.6613 57.6533 45.832 58.048C46.1627 58.8267 46.792 59.216 47.72 59.216C48.456 59.216 49.0373 58.928 49.464 58.352C49.9013 57.7653 50.12 56.9813 50.12 56C50.12 54.9973 49.912 54.2133 49.496 53.648C49.0907 53.072 48.5307 52.784 47.816 52.784C47.3147 52.784 46.8613 52.944 46.456 53.264C46.0507 53.5733 45.7947 53.9627 45.688 54.432ZM59.5353 60.208C58.6606 60.208 58.1219 59.8293 57.9193 59.072C57.3753 59.872 56.5219 60.272 55.3593 60.272C54.4953 60.272 53.8019 60.0587 53.2793 59.632C52.7673 59.2053 52.5113 58.6347 52.5113 57.92C52.5113 57.0347 52.8899 56.384 53.6473 55.968C53.9353 55.808 54.1806 55.7067 54.3832 55.664C54.5966 55.6107 55.0179 55.5467 55.6473 55.472C56.5433 55.376 57.1246 55.2427 57.3913 55.072C57.6686 54.9013 57.8073 54.5867 57.8073 54.128C57.8073 53.6907 57.6526 53.3493 57.3433 53.104C57.0446 52.848 56.6233 52.72 56.0793 52.72C55.5993 52.72 55.1513 52.8533 54.7353 53.12C54.5753 53.2267 54.4953 53.3387 54.4953 53.456C54.4953 53.4987 54.5433 53.552 54.6393 53.616C54.7886 53.7227 54.8633 53.904 54.8633 54.16C54.8633 54.3733 54.7833 54.5493 54.6233 54.688C54.4739 54.8267 54.2819 54.896 54.0473 54.896C53.7699 54.896 53.5353 54.8 53.3433 54.608C53.1619 54.416 53.0713 54.1813 53.0713 53.904C53.0713 53.3067 53.3646 52.7947 53.9513 52.368C54.5486 51.9413 55.2686 51.728 56.1113 51.728C58.0526 51.728 59.0233 52.6613 59.0233 54.528V57.76C59.0233 58.272 59.0339 58.576 59.0553 58.672C59.1193 59.0453 59.3006 59.232 59.5993 59.232C59.9726 59.232 60.1593 58.8907 60.1593 58.208V57.424C60.1593 57.0827 60.3246 56.912 60.6553 56.912C61.0073 56.912 61.1833 57.168 61.1833 57.68V57.76L61.1673 58.672C61.1459 59.696 60.6019 60.208 59.5353 60.208ZM57.7593 57.024L57.7753 55.888C57.5406 56.1013 57.2899 56.2507 57.0233 56.336C56.7673 56.4213 56.3033 56.496 55.6313 56.56C54.4153 56.6773 53.8073 57.1253 53.8073 57.904C53.8073 58.3093 53.9513 58.6293 54.2393 58.864C54.5379 59.0987 54.9379 59.216 55.4393 59.216C56.1539 59.216 56.7139 59.024 57.1193 58.64C57.5353 58.2453 57.7486 57.7067 57.7593 57.024ZM64.1025 52.464V52.896C64.6572 52.1173 65.3985 51.728 66.3265 51.728C67.0732 51.728 67.6758 51.9413 68.1345 52.368C68.6038 52.784 68.8385 53.3227 68.8385 53.984C68.8385 54.4533 68.7212 54.8373 68.4865 55.136C68.2518 55.424 67.9425 55.568 67.5585 55.568C67.3132 55.568 67.1052 55.4933 66.9345 55.344C66.7638 55.1947 66.6785 55.0133 66.6785 54.8C66.6785 54.6293 66.7425 54.48 66.8705 54.352C66.9985 54.2133 67.1478 54.144 67.3185 54.144C67.3505 54.144 67.4198 54.16 67.5265 54.192C67.5905 54.064 67.6225 53.9467 67.6225 53.84C67.6225 53.5307 67.4838 53.2693 67.2065 53.056C66.9398 52.8427 66.6038 52.736 66.1985 52.736C65.3665 52.736 64.8118 53.1093 64.5345 53.856C64.3638 54.3147 64.2785 55.008 64.2785 55.936V56.992C64.2785 57.7067 64.2838 58.1067 64.2945 58.192C64.3478 58.8 64.5132 59.104 64.7905 59.104C64.9292 59.104 65.0732 59.0827 65.2225 59.04C65.3398 59.008 65.4412 58.992 65.5265 58.992C65.8678 58.992 66.0385 59.1627 66.0385 59.504C66.0385 59.8773 65.8198 60.064 65.3825 60.064H65.3185C65.1585 60.064 64.9132 60.0427 64.5825 60C64.2625 59.968 64.0225 59.952 63.8625 59.952C63.4358 59.952 63.0998 59.9627 62.8545 59.984L61.9585 60.064C61.5212 60.064 61.3025 59.8773 61.3025 59.504C61.3025 59.1733 61.5052 59.008 61.9105 59.008C62.0172 59.008 62.0972 59.0133 62.1505 59.024L62.3905 59.072C62.4972 59.0933 62.5718 59.104 62.6145 59.104C62.8812 59.104 63.0252 58.8587 63.0465 58.368L63.0785 57.552L63.0305 53.92C62.9985 53.2907 62.8385 52.976 62.5505 52.976C62.4652 52.976 62.3478 52.992 62.1985 53.024C62.0492 53.056 61.9318 53.072 61.8465 53.072C61.4945 53.072 61.3185 52.9013 61.3185 52.56C61.3185 52.1867 61.5478 52 62.0065 52C62.1132 52 62.2732 52.016 62.4865 52.048C62.6998 52.0693 62.8598 52.08 62.9665 52.08C63.0518 52.08 63.1905 52.0693 63.3825 52.048C63.4678 52.0267 63.5692 52.016 63.6865 52.016C63.9638 52.016 64.1025 52.1653 64.1025 52.464ZM71.6259 49.792C71.5405 50.6773 71.4925 51.728 71.4819 52.944C71.8232 52.496 72.1699 52.1813 72.5219 52C72.8739 51.8187 73.3165 51.728 73.8499 51.728C74.9165 51.728 75.7645 52.1013 76.3939 52.848C77.0232 53.5947 77.3379 54.5867 77.3379 55.824C77.3379 57.1787 77.0019 58.2613 76.3299 59.072C75.6685 59.872 74.7725 60.272 73.6419 60.272C72.5432 60.272 71.7485 59.8613 71.2579 59.04C71.3005 59.3493 71.3219 59.52 71.3219 59.552C71.3219 59.936 71.1352 60.128 70.7619 60.128C70.3885 60.128 70.2019 59.8613 70.2019 59.328C70.2019 59.1787 70.2072 59.0667 70.2179 58.992C70.2179 58.7467 70.2232 58.4853 70.2339 58.208L70.2819 56.976L70.3139 55.36L70.2819 51.088C70.2712 50.6933 70.2285 50.4267 70.1539 50.288C70.0899 50.1493 69.9725 50.08 69.8019 50.08C69.7699 50.08 69.6312 50.1013 69.3859 50.144C69.2685 50.1653 69.1672 50.176 69.0819 50.176C68.7192 50.176 68.5379 50.0053 68.5379 49.664C68.5379 49.312 68.7512 49.136 69.1779 49.136C69.3059 49.136 69.4125 49.1413 69.4979 49.152L69.8819 49.2C70.0525 49.2213 70.1912 49.232 70.2979 49.232C70.4152 49.232 70.5805 49.216 70.7939 49.184C71.0072 49.1413 71.1672 49.12 71.2739 49.12C71.5085 49.12 71.6259 49.2693 71.6259 49.568V49.792ZM71.6099 54.432C71.5352 54.7733 71.4979 55.2533 71.4979 55.872C71.4979 56.928 71.5832 57.6533 71.7539 58.048C72.0845 58.8267 72.7139 59.216 73.6419 59.216C74.3779 59.216 74.9592 58.928 75.3859 58.352C75.8232 57.7653 76.0419 56.9813 76.0419 56C76.0419 54.9973 75.8339 54.2133 75.4179 53.648C75.0125 53.072 74.4525 52.784 73.7379 52.784C73.2365 52.784 72.7832 52.944 72.3779 53.264C71.9725 53.5733 71.7165 53.9627 71.6099 54.432ZM85.8411 55.296C85.8411 55.7013 85.8145 55.952 85.7611 56.048C85.7078 56.1333 85.5531 56.176 85.2971 56.176H80.2091C80.0705 56.176 79.9798 56.1973 79.9371 56.24C79.8945 56.272 79.8731 56.3307 79.8731 56.416C79.8731 57.216 80.1131 57.8827 80.5931 58.416C81.0731 58.9493 81.6705 59.216 82.3851 59.216C82.8545 59.216 83.2811 59.088 83.6651 58.832C84.0598 58.576 84.3158 58.2507 84.4331 57.856L84.5771 57.392C84.6518 57.136 84.8278 57.008 85.1051 57.008C85.4998 57.008 85.6971 57.2107 85.6971 57.616C85.6971 58.3093 85.3451 58.928 84.6411 59.472C83.9371 60.0053 83.1371 60.272 82.2411 60.272C81.1211 60.272 80.2305 59.8987 79.5691 59.152C78.9078 58.3947 78.5771 57.3813 78.5771 56.112C78.5771 54.8107 78.9291 53.7547 79.6331 52.944C80.3371 52.1333 81.2545 51.728 82.3851 51.728C83.3878 51.728 84.2145 52.064 84.8651 52.736C85.5158 53.408 85.8411 54.2613 85.8411 55.296ZM80.0331 54.88C80.0331 55.0293 80.1505 55.104 80.3851 55.104H84.2091C84.4331 55.104 84.5451 55.0293 84.5451 54.88C84.5451 54.3147 84.3318 53.824 83.9051 53.408C83.4785 52.992 82.9771 52.784 82.4011 52.784C81.8038 52.784 81.2598 53.0027 80.7691 53.44C80.2785 53.8667 80.0331 54.3467 80.0331 54.88ZM89.4463 52.464V52.896C90.0009 52.1173 90.7423 51.728 91.6703 51.728C92.4169 51.728 93.0196 51.9413 93.4783 52.368C93.9476 52.784 94.1823 53.3227 94.1823 53.984C94.1823 54.4533 94.0649 54.8373 93.8303 55.136C93.5956 55.424 93.2863 55.568 92.9023 55.568C92.6569 55.568 92.4489 55.4933 92.2783 55.344C92.1076 55.1947 92.0223 55.0133 92.0223 54.8C92.0223 54.6293 92.0863 54.48 92.2143 54.352C92.3423 54.2133 92.4916 54.144 92.6623 54.144C92.6943 54.144 92.7636 54.16 92.8703 54.192C92.9343 54.064 92.9663 53.9467 92.9663 53.84C92.9663 53.5307 92.8276 53.2693 92.5503 53.056C92.2836 52.8427 91.9476 52.736 91.5423 52.736C90.7103 52.736 90.1556 53.1093 89.8783 53.856C89.7076 54.3147 89.6223 55.008 89.6223 55.936V56.992C89.6223 57.7067 89.6276 58.1067 89.6383 58.192C89.6916 58.8 89.8569 59.104 90.1343 59.104C90.2729 59.104 90.4169 59.0827 90.5663 59.04C90.6836 59.008 90.7849 58.992 90.8703 58.992C91.2116 58.992 91.3823 59.1627 91.3823 59.504C91.3823 59.8773 91.1636 60.064 90.7263 60.064H90.6623C90.5023 60.064 90.2569 60.0427 89.9263 60C89.6063 59.968 89.3663 59.952 89.2063 59.952C88.7796 59.952 88.4436 59.9627 88.1983 59.984L87.3023 60.064C86.8649 60.064 86.6463 59.8773 86.6463 59.504C86.6463 59.1733 86.8489 59.008 87.2543 59.008C87.3609 59.008 87.4409 59.0133 87.4943 59.024L87.7343 59.072C87.8409 59.0933 87.9156 59.104 87.9583 59.104C88.2249 59.104 88.3689 58.8587 88.3903 58.368L88.4223 57.552L88.3743 53.92C88.3423 53.2907 88.1823 52.976 87.8943 52.976C87.8089 52.976 87.6916 52.992 87.5423 53.024C87.3929 53.056 87.2756 53.072 87.1903 53.072C86.8383 53.072 86.6623 52.9013 86.6623 52.56C86.6623 52.1867 86.8916 52 87.3503 52C87.4569 52 87.6169 52.016 87.8303 52.048C88.0436 52.0693 88.2036 52.08 88.3103 52.08C88.3956 52.08 88.5343 52.0693 88.7263 52.048C88.8116 52.0267 88.9129 52.016 89.0303 52.016C89.3076 52.016 89.4463 52.1653 89.4463 52.464ZM98.2656 51.728C98.9803 51.728 99.5776 51.9147 100.058 52.288V52.224C100.058 51.8293 100.228 51.632 100.57 51.632C100.922 51.632 101.098 51.8027 101.098 52.144C101.098 52.208 101.087 52.368 101.066 52.624C101.023 52.8373 101.002 53.0507 101.002 53.264C101.002 53.392 101.018 53.5787 101.05 53.824C101.092 54.0693 101.114 54.256 101.114 54.384C101.114 54.7893 100.938 54.992 100.586 54.992C100.244 54.992 100.068 54.8213 100.058 54.48L100.042 53.952C100.031 53.632 99.8443 53.36 99.4816 53.136C99.1296 52.9013 98.7136 52.784 98.2336 52.784C97.743 52.784 97.3323 52.912 97.0016 53.168C96.671 53.4133 96.5056 53.7227 96.5056 54.096C96.5056 54.7787 96.975 55.184 97.9136 55.312L98.8416 55.44C100.655 55.6853 101.562 56.4373 101.562 57.696C101.562 58.464 101.268 59.088 100.682 59.568C100.095 60.0373 99.327 60.272 98.3776 60.272C97.4923 60.272 96.7243 60.0213 96.0736 59.52C96.0843 59.6267 96.0896 59.728 96.0896 59.824C96.0896 60.208 95.9083 60.4 95.5456 60.4C95.151 60.4 94.9536 60.1813 94.9536 59.744C94.9536 59.8187 94.9856 59.5413 95.0496 58.912C95.071 58.7627 95.0816 58.6133 95.0816 58.464C95.0816 58.208 95.0603 57.968 95.0176 57.744C94.975 57.52 94.9536 57.344 94.9536 57.216C94.9536 56.8427 95.1243 56.656 95.4656 56.656C95.6896 56.656 95.8283 56.7093 95.8816 56.816C95.9456 56.9227 95.983 57.2053 95.9936 57.664C96.0043 58.1227 96.2443 58.496 96.7136 58.784C97.183 59.072 97.7803 59.216 98.5056 59.216C99.0283 59.216 99.4603 59.0827 99.8016 58.816C100.143 58.5493 100.314 58.2133 100.314 57.808C100.314 57.0827 99.7376 56.6613 98.5856 56.544C97.487 56.4267 96.6496 56.2133 96.0736 55.904C95.4976 55.584 95.2096 55.0293 95.2096 54.24C95.2096 53.4933 95.4923 52.8907 96.0576 52.432C96.623 51.9627 97.359 51.728 98.2656 51.728ZM105.277 49.696L105.213 52.8C105.639 52.3947 106.029 52.1173 106.381 51.968C106.733 51.808 107.149 51.728 107.629 51.728C108.546 51.728 109.282 51.9893 109.837 52.512C110.391 53.0347 110.669 53.7227 110.669 54.576V57.248C110.669 57.8773 110.674 58.224 110.685 58.288C110.727 58.8213 110.866 59.088 111.101 59.088C111.186 59.088 111.309 59.0667 111.469 59.024C111.533 59.0133 111.618 59.008 111.725 59.008C112.119 59.008 112.317 59.184 112.317 59.536C112.317 59.888 112.061 60.064 111.549 60.064C111.41 60.064 111.207 60.048 110.941 60.016C110.493 59.9627 110.13 59.936 109.853 59.936C109.575 59.936 109.362 59.9467 109.213 59.968C108.765 60.032 108.487 60.064 108.381 60.064C108.189 60.064 108.029 60.0107 107.901 59.904C107.773 59.7867 107.709 59.6427 107.709 59.472C107.709 59.3333 107.762 59.216 107.869 59.12C107.986 59.024 108.119 58.976 108.269 58.976C108.386 58.976 108.525 59.0027 108.685 59.056C108.781 59.088 108.871 59.104 108.957 59.104C109.277 59.104 109.442 58.7573 109.453 58.064C109.453 57.936 109.458 57.6853 109.469 57.312L109.485 56.624V55.76C109.485 54.672 109.378 53.9413 109.165 53.568C108.855 53.0133 108.311 52.736 107.533 52.736C106.69 52.736 106.077 53.024 105.693 53.6C105.426 53.9947 105.287 54.6293 105.277 55.504L105.261 56.656C105.261 56.72 105.255 56.8267 105.245 56.976C105.245 57.1147 105.245 57.216 105.245 57.28C105.245 57.888 105.25 58.24 105.261 58.336C105.314 58.8587 105.469 59.12 105.725 59.12C105.81 59.12 105.927 59.104 106.077 59.072C106.237 59.0293 106.354 59.008 106.429 59.008C106.77 59.008 106.941 59.1733 106.941 59.504C106.941 59.8773 106.706 60.064 106.237 60.064C106.087 60.064 105.863 60.048 105.565 60.016C105.159 59.9733 104.813 59.952 104.525 59.952C104.343 59.952 104.093 59.968 103.773 60C103.346 60.0427 103.074 60.064 102.957 60.064C102.519 60.064 102.301 59.872 102.301 59.488C102.301 59.168 102.503 59.008 102.909 59.008C103.047 59.008 103.149 59.0187 103.213 59.04C103.394 59.072 103.522 59.088 103.597 59.088C103.767 59.088 103.879 58.928 103.933 58.608C103.997 58.2773 104.034 57.6107 104.045 56.608L104.061 53.744C104.061 52.144 104.029 51.136 103.965 50.72C103.901 50.2933 103.751 50.08 103.517 50.08C103.442 50.08 103.33 50.096 103.181 50.128C103.031 50.16 102.914 50.176 102.829 50.176C102.466 50.176 102.285 50.0053 102.285 49.664C102.285 49.5147 102.349 49.3867 102.477 49.28C102.605 49.1733 102.759 49.12 102.941 49.12C102.994 49.12 103.175 49.136 103.485 49.168C103.687 49.1893 103.906 49.2 104.141 49.2C104.237 49.2 104.37 49.1893 104.541 49.168C104.711 49.1467 104.834 49.136 104.909 49.136C105.154 49.136 105.277 49.312 105.277 49.664V49.696ZM116.632 60.272C115.512 60.272 114.616 59.888 113.944 59.12C113.272 58.3413 112.936 57.3013 112.936 56C112.936 54.6987 113.272 53.664 113.944 52.896C114.627 52.1173 115.539 51.728 116.68 51.728C117.843 51.728 118.76 52.1067 119.432 52.864C120.104 53.6213 120.44 54.6507 120.44 55.952C120.44 57.2533 120.093 58.2987 119.4 59.088C118.707 59.8773 117.784 60.272 116.632 60.272ZM116.712 52.784C115.965 52.784 115.379 53.0453 114.952 53.568C114.525 54.0907 114.291 54.832 114.248 55.792C114.248 55.792 114.248 55.8613 114.248 56C114.248 57.0027 114.456 57.792 114.872 58.368C115.299 58.9333 115.891 59.216 116.648 59.216C117.427 59.216 118.035 58.9333 118.472 58.368C118.92 57.792 119.144 56.9973 119.144 55.984C119.144 53.8507 118.333 52.784 116.712 52.784ZM124.119 52.464V52.976C124.716 52.144 125.532 51.728 126.567 51.728C127.633 51.728 128.481 52.096 129.111 52.832C129.74 53.568 130.055 54.5653 130.055 55.824C130.055 57.1787 129.719 58.2613 129.047 59.072C128.385 59.872 127.495 60.272 126.375 60.272C125.447 60.272 124.695 59.9467 124.119 59.296V60.624C124.119 61.0293 124.129 61.2907 124.151 61.408C124.215 61.7387 124.369 61.904 124.615 61.904C124.689 61.904 124.801 61.888 124.951 61.856C125.1 61.824 125.212 61.808 125.286 61.808C125.628 61.808 125.799 61.984 125.799 62.336C125.799 62.688 125.575 62.864 125.127 62.864C124.967 62.864 124.727 62.8427 124.407 62.8C124.172 62.768 123.82 62.752 123.351 62.752C123.095 62.752 122.881 62.7627 122.711 62.784C122.284 62.8373 122.001 62.864 121.863 62.864C121.681 62.864 121.527 62.8053 121.399 62.688C121.271 62.5813 121.207 62.4533 121.207 62.304C121.207 61.9627 121.388 61.792 121.751 61.792C121.815 61.792 121.916 61.808 122.055 61.84C122.236 61.8827 122.369 61.904 122.455 61.904C122.657 61.904 122.78 61.7973 122.823 61.584C122.876 61.3813 122.908 60.8053 122.919 59.856L122.935 53.68C122.924 53.1893 122.785 52.944 122.519 52.944C122.444 52.944 122.327 52.9653 122.167 53.008C122.017 53.04 121.9 53.056 121.815 53.056C121.42 53.056 121.223 52.88 121.223 52.528C121.223 52.1867 121.457 52.016 121.927 52.016C122.044 52.016 122.172 52.0213 122.311 52.032C122.577 52.0533 122.775 52.064 122.903 52.064C122.999 52.064 123.137 52.0587 123.319 52.048C123.5 52.0267 123.633 52.016 123.719 52.016C123.985 52.016 124.119 52.1653 124.119 52.464ZM124.359 54.416C124.263 54.832 124.209 55.3387 124.199 55.936C124.199 55.9787 124.193 56.0587 124.183 56.176C124.183 56.272 124.183 56.3467 124.183 56.4C124.183 57.1147 124.241 57.6373 124.359 57.968C124.476 58.288 124.705 58.576 125.047 58.832C125.399 59.088 125.831 59.216 126.343 59.216C127.111 59.216 127.703 58.9387 128.119 58.384C128.545 57.8187 128.759 57.0187 128.759 55.984C128.759 53.8507 128.001 52.784 126.487 52.784C125.975 52.784 125.516 52.9387 125.111 53.248C124.716 53.5573 124.465 53.9467 124.359 54.416Z" fill="black"/>
</svg>
