<svg width="21" height="22" viewBox="0 0 21 22" fill="none" xmlns="http://www.w3.org/2000/svg">
<path d="M18.2073 15.3121C16.8783 14.1754 15.5295 13.4869 14.2168 14.6219L13.433 15.3078C12.8595 15.8058 11.7932 18.1324 7.67048 13.3899C3.54865 8.65332 6.00149 7.91583 6.57585 7.42218L7.36398 6.73534C8.66982 5.59778 8.17702 4.16574 7.2352 2.69164L6.66685 1.79876C5.72075 0.328086 4.6905 -0.637768 3.38123 0.498076L2.6738 1.11622C2.09514 1.53776 0.477662 2.90799 0.0853106 5.51107C-0.386885 8.63443 1.10268 12.2111 4.51536 16.1355C7.92375 20.0616 11.2609 22.0336 14.422 21.9993C17.0491 21.9709 18.6357 20.5612 19.1319 20.0487L19.842 19.4297C21.1478 18.2947 20.3365 17.1391 19.0066 15.9998L18.2073 15.3121Z" fill="#030104"/>
</svg>
