<svg width="100" height="90" viewBox="0 0 100 90" fill="none" xmlns="http://www.w3.org/2000/svg">
<g clip-path="url(#clip0)">
<path d="M89.9056 23.4748C89.341 24.0546 89.354 24.9816 89.9338 25.5462C90.5136 26.1115 91.4414 26.0978 92.0052 25.518L96.6988 20.6962C97.2626 20.1171 97.2504 19.1894 96.6706 18.6248C96.0907 18.061 95.163 18.0732 94.5992 18.653L89.9056 23.4748Z" fill="black"/>
<path d="M96.6706 55.626C97.2504 55.0621 97.2626 54.1344 96.6988 53.5546L92.0052 48.7328C91.4414 48.1537 90.5137 48.1407 89.9338 48.7053C89.354 49.2691 89.3418 50.1969 89.9056 50.7767L94.5992 55.5985C95.1638 56.1776 96.0908 56.1905 96.6706 55.626Z" fill="black"/>
<path d="M92.1816 37.1253C92.1816 37.9348 92.8369 38.5909 93.6464 38.5909H98.34C99.1487 38.5909 99.8049 37.9348 99.8049 37.1253C99.8049 36.3166 99.1487 35.6605 98.34 35.6605H93.6464C92.8369 35.6605 92.1816 36.3166 92.1816 37.1253Z" fill="black"/>
<path d="M7.60728 25.5187C8.17109 26.0986 9.09883 26.1108 9.67866 25.5462C10.2585 24.9816 10.2707 24.0547 9.70613 23.4748L5.01099 18.653C4.44642 18.0732 3.51868 18.061 2.93961 18.6256C2.35977 19.1901 2.34756 20.1179 2.91138 20.697L7.60728 25.5187Z" fill="black"/>
<path d="M7.60728 48.7327L2.91138 53.5545C2.34756 54.1343 2.35977 55.0621 2.93961 55.6259C3.51944 56.1905 4.44642 56.1782 5.01099 55.5984L9.70613 50.7766C10.2707 50.1975 10.2585 49.2698 9.67866 48.7052C9.09883 48.1406 8.17186 48.1529 7.60728 48.7327Z" fill="black"/>
<path d="M1.26953 38.5909H5.96544C6.77415 38.5909 7.43028 37.9348 7.43028 37.1261C7.43028 36.3166 6.77415 35.6613 5.96544 35.6613H1.26953C0.460054 35.6613 -0.195312 36.3166 -0.195312 37.1261C-0.195312 37.9348 0.460054 38.5909 1.26953 38.5909Z" fill="black"/>
<path d="M10.9756 38.0501L46.7682 82.0817C47.5151 82.9995 48.6214 83.5259 49.8047 83.5259C50.9705 83.5259 52.0836 83.0125 52.8412 82.0809L52.842 82.0802L72.3367 58.0979C72.8471 57.47 72.7517 56.5476 72.1238 56.0372C71.4959 55.526 70.5727 55.6221 70.0631 56.2493L54.5029 75.3914L62.7824 38.5902H84.4178L74.3768 50.9438C73.8664 51.5709 73.961 52.4941 74.5889 53.0045C75.2168 53.5149 76.1399 53.4195 76.6496 52.7916L88.6247 38.0607C89.1259 37.4412 89.029 36.5921 88.5385 36.0954L70.8169 18.1739C69.777 17.1226 68.3755 16.6015 67.051 16.6015H63.3042C62.4947 16.6015 61.8386 17.2576 61.8386 18.0663C61.8386 18.8751 62.4947 19.5312 63.3042 19.5312H66.4613L61.3061 33.6807L53.1022 19.5312H56.4675C57.277 19.5312 57.9323 18.8751 57.9323 18.0663C57.9323 17.2576 57.277 16.6015 56.4675 16.6015H32.5584C31.1256 16.6015 29.7569 17.1981 28.7918 18.1739L11.071 36.0954C10.5735 36.5989 10.4904 37.4519 10.9756 38.0501ZM30.4443 20.6703L35.9062 35.6605H15.6212L30.4443 20.6703ZM36.8271 38.591L45.1065 75.3922L15.1909 38.591H36.8271ZM50.3685 80.42C50.0344 80.6611 49.5385 80.6428 49.2409 80.42L39.8308 38.591H59.7794L50.3685 80.42ZM69.1651 20.6703L83.9883 35.6613H63.7032L69.1651 20.6703ZM40.5419 35.6605L49.8047 19.6845L59.0676 35.6605H40.5419ZM38.3034 33.6807L33.1482 19.5312H46.5065L38.3034 33.6807Z" fill="black"/>
<path d="M10.9756 38.0501L46.7682 82.0817C47.5151 82.9995 48.6214 83.5259 49.8047 83.5259C50.9705 83.5259 52.0836 83.0125 52.8412 82.0809L52.842 82.0802L72.3367 58.0979C72.8471 57.47 72.7517 56.5476 72.1238 56.0372C71.4959 55.526 70.5727 55.6221 70.0631 56.2493L54.5029 75.3914L62.7824 38.5902H84.4178L74.3768 50.9438C73.8664 51.5709 73.961 52.4941 74.5889 53.0045C75.2168 53.5149 76.1399 53.4195 76.6496 52.7916L88.6247 38.0607C89.1259 37.4412 89.029 36.5921 88.5385 36.0954L70.8169 18.1739C69.777 17.1226 68.3755 16.6015 67.051 16.6015H63.3042C62.4947 16.6015 61.8386 17.2576 61.8386 18.0663C61.8386 18.8751 62.4947 19.5312 63.3042 19.5312H66.4613L61.3061 33.6807L53.1022 19.5312H56.4675C57.277 19.5312 57.9323 18.8751 57.9323 18.0663C57.9323 17.2576 57.277 16.6015 56.4675 16.6015H32.5584C31.1256 16.6015 29.7569 17.1981 28.7918 18.1739L11.071 36.0954C10.5735 36.5989 10.4904 37.4519 10.9756 38.0501ZM30.4443 20.6703L35.9062 35.6605H15.6212L30.4443 20.6703ZM36.8271 38.591L45.1065 75.3922L15.1909 38.591H36.8271ZM50.3685 80.42C50.0344 80.6611 49.5385 80.6428 49.2409 80.42L39.8308 38.591H59.7794L50.3685 80.42ZM69.1651 20.6703L83.9883 35.6613H63.7032L69.1651 20.6703ZM40.5419 35.6605L49.8047 19.6845L59.0676 35.6605H40.5419ZM38.3034 33.6807L33.1482 19.5312H46.5065L38.3034 33.6807Z" stroke="black"/>
</g>
<defs>
<clipPath id="clip0">
<rect width="100" height="90" fill="white"/>
</clipPath>
</defs>
</svg>
