<svg width="90" height="90" viewBox="0 0 90 90" fill="none" xmlns="http://www.w3.org/2000/svg">
<path d="M73.1362 39.365C73.1392 39.1941 73.1379 39.4968 73.1379 34.5853C73.1379 26.2318 46.9063 22.9577 28.0471 25.3537C27.323 25.4453 26.8103 26.1061 26.9018 26.8301C26.9934 27.554 27.6559 28.0685 28.3782 27.9754C39.587 26.5556 54.8027 27.082 64.2762 30.292C68.8622 31.8443 70.4952 33.5283 70.4952 34.5855C70.4952 35.5141 69.3254 36.6309 67.2853 37.6509C63.9308 39.3296 58.5169 40.6477 52.0423 41.3627C31.7624 43.5899 11.3207 39.0579 11.3207 34.5851C11.3207 33.4276 13.2023 31.6112 18.4824 29.9886C19.9164 29.5481 21.5233 29.1482 23.2568 28.8012C23.9721 28.6584 24.4354 27.9625 24.2927 27.2474C24.1482 26.5304 23.4523 26.0671 22.737 26.2114C17.8679 27.1824 8.67799 29.6365 8.67799 34.5851C8.87223 36.1033 6.90822 55.9173 18.3871 70.6241C13.0219 71.542 1.13589 74.0123 1.13589 79.4382C1.13589 89.7629 45.6611 92.8224 68.9556 87.264C77.1637 85.3068 81.3267 82.6727 81.3267 79.4382C81.3267 73.901 68.9675 71.4352 63.5098 70.5271C64.0542 69.8243 64.581 69.0878 65.0866 68.3214C76.848 67.7126 85.3275 62.5374 88.416 51.0736C91.2753 40.4543 79.8324 33.6825 73.1362 39.365ZM85.8651 50.3849C84.9331 53.8434 82.1882 64.0194 66.7639 65.547C66.9189 65.2685 67.0705 64.9868 67.2202 64.7013C67.5584 64.0548 67.3101 63.2565 66.6635 62.9183C66.017 62.5784 65.2188 62.8285 64.8788 63.475C60.8014 71.2657 53.8424 78.117 45.0165 78.117H36.7996C34.2291 78.117 31.6782 77.5181 29.2169 76.334C28.5598 76.0169 27.7705 76.2936 27.4533 76.9507C27.1379 77.6095 27.4146 78.3991 28.0717 78.7145C31.8865 80.5516 34.9577 80.7992 38.2055 80.7783H45.0163C51.4243 80.7783 57.1455 77.5501 61.5013 72.8864C63.9554 73.251 66.2494 73.6862 68.3423 74.1849C76.5063 76.1317 78.6839 78.4042 78.6839 79.4383C78.6839 80.4742 76.5063 82.7469 68.3423 84.6937C53.388 88.2591 29.0829 88.2612 14.12 84.6937C5.95777 82.7469 3.77842 80.4742 3.77842 79.4383C3.77842 78.4042 5.95777 76.1315 14.12 74.1849C16.0527 73.7233 18.1563 73.3181 20.399 72.9727C21.3415 73.9734 22.3317 74.893 23.3676 75.7244C23.6107 75.9199 23.9032 76.0152 24.1939 76.0152C25.4358 76.0152 25.9946 74.4449 25.022 73.6649C10.7754 62.191 11.4051 39.3423 11.3207 38.8065C22.0198 46.5323 59.8701 46.4393 70.4952 38.8083C70.4511 39.3165 70.8645 48.6883 66.9857 58.7973C66.7251 59.4792 67.065 60.2438 67.7451 60.5045C68.4296 60.7661 69.1923 60.4247 69.4523 59.7451C71.2599 55.0359 72.428 49.8402 72.9001 44.4846C73.7317 41.2606 77.0227 39.298 80.2573 40.1084C84.2343 41.102 87.2995 45.0726 85.8651 50.3849Z" fill="black"/>
<path d="M33.9448 11.2232C33.9448 9.4137 35.6761 9.12946 35.6761 6.26404C35.6761 5.53419 35.0844 4.94269 34.3548 4.94269C33.6251 4.94269 33.0334 5.53419 33.0334 6.26404C33.0334 8.07336 31.3023 8.3576 31.3021 11.2232C31.3021 12.8785 31.94 13.7923 32.4057 14.4593C32.7972 15.0199 33.0334 15.3583 33.0334 16.1824C33.0334 17.9915 31.3023 18.2757 31.3021 21.141C31.3023 21.8707 31.8938 22.4623 32.6235 22.4623C33.3532 22.4623 33.9448 21.8708 33.9448 21.141C33.9448 19.3338 35.6761 19.0476 35.6761 16.1824C35.6761 14.527 35.0384 13.6135 34.5726 12.9466C34.1811 12.3858 33.9448 12.0474 33.9448 11.2232Z" fill="black"/>
<path d="M49.4087 12.9466C49.0172 12.3858 48.781 12.0474 48.781 11.2232C48.781 9.4137 50.5121 9.12946 50.5121 6.26404C50.5121 5.53419 49.9206 4.94269 49.1907 4.94269C48.4609 4.94269 47.8694 5.53419 47.8694 6.26404C47.8694 8.07336 46.1383 8.3576 46.1383 11.2232C46.1383 12.8785 46.776 13.7923 47.2418 14.4592C47.6333 15.0199 47.8696 15.3583 47.8696 16.1824C47.8696 17.9915 46.1385 18.2757 46.1385 21.141C46.1385 21.8708 46.73 22.4623 47.4598 22.4623C48.1897 22.4623 48.7812 21.8708 48.7812 21.141C48.7812 19.3318 50.5123 19.0476 50.5123 16.1824C50.5123 14.5272 49.8745 13.6137 49.4087 12.9466Z" fill="black"/>
<path d="M43.0942 1.32135C43.0942 0.591506 42.5025 0 41.7728 0C41.0431 0 40.4515 0.591506 40.4515 1.32135C40.4515 4.07005 38.7202 4.27853 38.7202 7.86765C38.7202 11.4107 40.4515 11.7124 40.4515 14.4141C40.4515 17.1373 38.7202 17.3854 38.7202 20.9597C38.7202 21.6894 39.3119 22.2811 40.0415 22.2811C40.7712 22.2811 41.3629 21.6896 41.3629 20.9597C41.3629 18.2112 43.0942 18.0029 43.0942 14.4141C43.0942 10.8709 41.3629 10.5692 41.3629 7.86765C41.3627 5.11842 43.0942 4.91082 43.0942 1.32135Z" fill="black"/>
</svg>
