<svg width="90" height="90" viewBox="0 0 90 90" fill="none" xmlns="http://www.w3.org/2000/svg">
<g clip-path="url(#clip0)">
<path d="M62.3119 52.6896C57.6558 48.1964 51.5075 45.7217 45.0002 45.7217C38.4915 45.7217 32.3425 48.1971 27.6864 52.6917C26.8274 53.5207 26.0226 54.4165 25.2941 55.3535C23.5885 57.5496 23.7924 60.7006 25.7672 62.6896C25.7706 62.693 25.7741 62.6964 25.7775 62.6999C26.826 63.7504 28.2185 64.329 29.6976 64.329C31.4348 64.329 33.0512 63.5392 34.1319 62.1612C34.4705 61.7291 34.8406 61.3115 35.2313 60.9207C37.8343 58.3126 41.3033 56.876 45.0002 56.876C48.6964 56.876 52.166 58.3126 54.7691 60.92C55.1584 61.3108 55.5286 61.7284 55.8684 62.1612C56.9492 63.5385 58.5649 64.329 60.3021 64.329H60.3028C61.7818 64.329 63.1744 63.7504 64.2222 62.6999C64.2263 62.6964 64.2297 62.693 64.2332 62.6896C66.208 60.7006 66.4119 57.5496 64.7056 55.3535C63.9771 54.4158 63.1716 53.52 62.3119 52.6896V52.6896ZM62.3586 60.8313C62.3559 60.834 62.3531 60.8368 62.3511 60.8396C61.8011 61.3865 61.0739 61.6878 60.3021 61.6878C59.3793 61.6878 58.5189 61.2654 57.9407 60.5286C57.5363 60.0133 57.0962 59.5165 56.6327 59.0528C53.5325 55.9452 49.4009 54.2349 45.0002 54.2349C40.5988 54.2349 36.4679 55.9459 33.367 59.0528C32.9022 59.5186 32.4627 60.0147 32.0589 60.5293C31.4815 61.2654 30.6211 61.6878 29.6976 61.6878C28.9258 61.6878 28.1993 61.3865 27.6493 60.8396C27.6466 60.8375 27.6438 60.8347 27.6417 60.832C26.596 59.7842 26.4813 58.1268 27.3746 56.9765C28.0263 56.1385 28.7466 55.337 29.5156 54.594C33.6781 50.5761 39.1774 48.3636 45.0002 48.3636C50.8223 48.3636 56.3209 50.5754 60.4827 54.5926C61.2524 55.3356 61.9734 56.1378 62.6251 56.9765C63.5191 58.1268 63.4044 59.7842 62.3586 60.8313Z" fill="black"/>
<path d="M45.0001 62.7515C42.8791 62.7515 40.8844 63.5791 39.3847 65.0817C37.8851 66.5843 37.0591 68.5822 37.0591 70.7074C37.0591 72.8326 37.8851 74.8312 39.3847 76.3338C40.8844 77.8363 42.8791 78.664 45.0001 78.664C47.1212 78.664 49.1152 77.8363 50.6148 76.3338C53.7109 73.2316 53.7109 68.1838 50.6148 65.0817C49.1152 63.5791 47.1212 62.7515 45.0001 62.7515V62.7515ZM48.7506 74.4659C47.7488 75.4696 46.4167 76.0228 45.0001 76.0228C43.5829 76.0228 42.2508 75.4696 41.249 74.4659C40.2472 73.4621 39.6951 72.1274 39.6951 70.7081C39.6951 69.2881 40.2472 67.9534 41.249 66.9496C42.2508 65.9458 43.5829 65.3927 45.0001 65.3927C46.4167 65.3927 47.7488 65.9458 48.7506 66.9496C50.8188 69.0218 50.8188 72.3936 48.7506 74.4659Z" fill="black"/>
<path d="M88.5445 30.815C87.9547 30.169 87.3395 29.5243 86.716 28.8996C78.1363 20.3067 67.3409 14.6307 55.4962 12.4863C43.9186 10.3907 32.1186 11.7763 21.3719 16.4952C20.7051 16.7883 20.401 17.5671 20.6935 18.2351C20.986 18.9032 21.7633 19.2079 22.43 18.9148C43.7964 9.53343 68.2987 14.1863 84.8518 30.7682C85.4478 31.3654 86.0362 31.9811 86.6 32.5983C87.6553 33.7534 87.6086 35.5325 86.4942 36.6491C85.9195 37.2243 85.1546 37.5339 84.3443 37.5133C83.543 37.4954 82.8049 37.1617 82.2672 36.5721C81.7612 36.0183 81.2352 35.4672 80.7037 34.9347C71.1888 25.4012 58.5099 20.1519 45.0001 20.1519C44.9994 20.1519 44.9974 20.1519 44.9967 20.1519C31.4855 20.1525 18.8052 25.4047 9.29169 34.9395C8.76023 35.4727 8.23563 36.0217 7.733 36.5721C7.19467 37.1617 6.45721 37.4961 5.65589 37.5133C4.84015 37.5325 4.08072 37.2243 3.506 36.6491C2.39157 35.5325 2.34488 33.7534 3.39957 32.599C3.96193 31.9832 4.54902 31.3688 5.14365 30.773C8.99918 26.9093 13.3525 23.6393 18.0808 21.0538C18.72 20.7043 18.9556 19.9021 18.6067 19.2616C18.2579 18.6218 17.4573 18.3851 16.818 18.7353C11.868 21.4411 7.31277 24.8632 3.27872 28.9051C2.6573 29.5285 2.04344 30.171 1.45498 30.815C-0.554834 33.0152 -0.473123 36.398 1.64175 38.517C2.69987 39.5765 4.09583 40.1558 5.58654 40.1558C5.62843 40.1558 5.67169 40.1551 5.71426 40.1545C7.24205 40.1207 8.64968 39.4816 9.67827 38.3554C10.1548 37.8332 10.6519 37.3124 11.1559 36.8074C20.1716 27.7713 32.19 22.7944 44.9967 22.7937H45.0001C57.8047 22.7937 69.8231 27.7686 78.8395 36.8026C79.3435 37.3076 79.8427 37.8304 80.3219 38.3554C81.3505 39.4816 82.7582 40.1207 84.286 40.1545C85.8076 40.1875 87.2859 39.591 88.3585 38.517C90.4726 36.398 90.555 33.0152 88.5445 30.815V30.815Z" fill="black"/>
<path d="M73.949 40.2439C66.8058 33.4218 57.4262 29.34 47.5371 28.7497C46.8093 28.707 46.1858 29.2615 46.1426 29.9894C46.0993 30.718 46.6534 31.3434 47.3806 31.3867C56.6483 31.9399 65.4374 35.7637 72.1301 42.1558C72.9774 42.9656 73.7966 43.8194 74.5643 44.6938C75.5881 45.86 75.5338 47.6309 74.4407 48.7261C73.8618 49.3054 73.0948 49.6102 72.2757 49.5841C71.4517 49.5572 70.6964 49.2002 70.1498 48.5768C69.5483 47.8916 68.9097 47.2215 68.2526 46.5844C62.0034 40.5336 53.7458 37.2016 45.0007 37.2009H45C36.2555 37.2009 27.9979 40.5329 21.7487 46.5831C21.0895 47.2208 20.451 47.8916 19.8495 48.5768C19.3029 49.2002 18.5483 49.5572 17.7236 49.5841C16.9065 49.6116 16.1374 49.3054 15.5586 48.7254C14.4668 47.6315 14.405 45.8682 15.4185 44.7124C15.9314 44.1269 16.4691 43.549 17.017 42.9945C23.8231 36.0967 32.9164 31.975 42.6214 31.3888C43.3479 31.3448 43.9013 30.7187 43.8581 29.9908C43.8141 29.2629 43.19 28.7063 42.4628 28.7517C32.1082 29.3771 22.4058 33.7761 15.1425 41.1369C14.5588 41.7286 13.9855 42.345 13.4375 42.969C11.5094 45.1685 11.6227 48.5177 13.6943 50.5933C14.7504 51.6508 16.1388 52.2266 17.6233 52.2266C17.6851 52.2266 17.7469 52.2259 17.8087 52.2239C19.3461 52.1743 20.8121 51.4808 21.8297 50.3209C22.3839 49.6886 22.973 49.0701 23.5807 48.4826C35.3924 37.0475 54.6103 37.0482 66.4206 48.484C67.0269 49.0708 67.6154 49.6886 68.1702 50.3209C69.1878 51.4808 70.6538 52.1743 72.1912 52.2239C73.7465 52.2741 75.2056 51.6948 76.3049 50.5933C78.3786 48.5156 78.483 45.1575 76.5439 42.9484C75.7254 42.0169 74.8527 41.1067 73.949 40.2439V40.2439Z" fill="black"/>
</g>
<defs>
<clipPath id="clip0">
<rect width="90" height="90" fill="white"/>
</clipPath>
</defs>
</svg>
