<svg width="22" height="22" viewBox="0 0 22 22" fill="none" xmlns="http://www.w3.org/2000/svg">
<path d="M19.536 15.3121C18.11 14.1754 16.6628 13.4869 15.2543 14.6219L14.4132 15.3078C13.7979 15.8058 12.6538 18.1324 8.23023 13.3899C3.80761 8.65332 6.43944 7.91583 7.05571 7.42218L7.90137 6.73534C9.30249 5.59778 8.77373 4.16574 7.76319 2.69164L7.15336 1.79876C6.13821 0.328086 5.03279 -0.637768 3.62798 0.498076L2.86892 1.11622C2.24804 1.53776 0.512519 2.90799 0.091536 5.51107C-0.415117 8.63443 1.18314 12.2111 4.84486 16.1355C8.50198 20.0616 12.0826 22.0336 15.4744 21.9993C18.2933 21.9709 19.9956 20.5612 20.5281 20.0487L21.2899 19.4297C22.691 18.2947 21.8205 17.1391 20.3936 15.9998L19.536 15.3121Z" fill="#D98F38"/>
</svg>
