<svg width="171" height="29" viewBox="0 0 171 29" fill="none" xmlns="http://www.w3.org/2000/svg">
<path d="M9.68 7.48L12.96 24.4L17.08 3.6C17.4267 1.78667 18.32 0.879999 19.76 0.879999C21.28 0.879999 22.1867 1.68 22.48 3.28L26.48 24.68L29.88 8.08C30.12 6.90666 30.24 6.01333 30.24 5.4C30.24 4.30667 29.68 3.76 28.56 3.76C28.32 3.76 27.9733 3.77333 27.52 3.8C27.0667 3.82667 26.72 3.84 26.48 3.84C25.3333 3.84 24.76 3.38667 24.76 2.48C24.76 1.6 25.32 1.16 26.44 1.16C26.8667 1.16 27.3067 1.18667 27.76 1.24C29.9467 1.50667 31.3867 1.64 32.08 1.64C32.6133 1.64 33.4 1.56 34.44 1.4C35.5067 1.24 36.3067 1.16 36.84 1.16C37.8267 1.16 38.32 1.62667 38.32 2.56C38.32 3.41333 37.84 3.84 36.88 3.84C36.72 3.84 36.48 3.82667 36.16 3.8C35.84 3.74667 35.6 3.72 35.44 3.72C34.88 3.72 34.4667 3.93333 34.2 4.36C33.96 4.78667 33.6667 5.74666 33.32 7.24L28.84 26.32C28.4933 27.7867 27.6667 28.52 26.36 28.52C24.9733 28.52 24.1067 27.6133 23.76 25.8L19.72 4.64L15.28 26.36C14.9867 27.8 14.2267 28.52 13 28.52C11.7467 28.52 10.9467 27.7867 10.6 26.32L5.84 6.4C5.6 5.38667 5.29333 4.70667 4.92 4.36C4.57333 3.98667 4.01333 3.8 3.24 3.8H2.96L2.08 3.88C1.22667 3.88 0.8 3.44 0.8 2.56C0.8 1.62667 1.26667 1.16 2.2 1.16C2.57333 1.16 3 1.2 3.48 1.28C4.92 1.52 6.32 1.64 7.68 1.64C8.32 1.64 9.78667 1.50667 12.08 1.24C12.48 1.18667 12.8667 1.16 13.24 1.16C14.2 1.16 14.68 1.6 14.68 2.48C14.68 3.44 14.0933 3.92 12.92 3.92C12.68 3.92 12.3067 3.89333 11.8 3.84C11.32 3.78667 10.96 3.76 10.72 3.76C9.78667 3.76 9.32 4.2 9.32 5.08C9.32 5.4 9.36 5.77333 9.44 6.2L9.68 7.48ZM50.1338 28.88C46.5871 28.88 43.7738 27.6 41.6938 25.04C39.6404 22.48 38.6138 19.0133 38.6138 14.64C38.6138 10.2133 39.6538 6.74667 41.7338 4.24C43.8138 1.70667 46.6804 0.44 50.3338 0.44C53.8271 0.44 56.6004 1.66667 58.6538 4.12C60.7338 6.57333 61.7738 9.89333 61.7738 14.08C61.7738 18.6133 60.7204 22.2133 58.6138 24.88C56.5338 27.5467 53.7071 28.88 50.1338 28.88ZM50.2138 3.32C47.6538 3.32 45.6671 4.30666 44.2538 6.28C42.8404 8.25333 42.1338 11.0267 42.1338 14.6C42.1338 18.2267 42.8404 21.04 44.2538 23.04C45.6671 25.0133 47.6404 26 50.1738 26C52.6538 26 54.6138 24.9733 56.0538 22.92C57.5204 20.84 58.2538 18.0267 58.2538 14.48C58.2538 10.9067 57.5604 8.16 56.1738 6.24C54.7871 4.29333 52.8004 3.32 50.2138 3.32ZM76.3447 28.88C72.798 28.88 69.9847 27.6 67.9047 25.04C65.8514 22.48 64.8247 19.0133 64.8247 14.64C64.8247 10.2133 65.8647 6.74667 67.9447 4.24C70.0247 1.70667 72.8914 0.44 76.5447 0.44C80.038 0.44 82.8114 1.66667 84.8647 4.12C86.9447 6.57333 87.9847 9.89333 87.9847 14.08C87.9847 18.6133 86.9314 22.2133 84.8247 24.88C82.7447 27.5467 79.918 28.88 76.3447 28.88ZM76.4247 3.32C73.8647 3.32 71.878 4.30666 70.4647 6.28C69.0514 8.25333 68.3447 11.0267 68.3447 14.6C68.3447 18.2267 69.0514 21.04 70.4647 23.04C71.878 25.0133 73.8514 26 76.3847 26C78.8647 26 80.8247 24.9733 82.2647 22.92C83.7314 20.84 84.4647 18.0267 84.4647 14.48C84.4647 10.9067 83.7714 8.16 82.3847 6.24C80.998 4.29333 79.0114 3.32 76.4247 3.32ZM96.9956 27.84H95.8756C95.4223 27.84 94.7156 27.8933 93.7556 28C92.7956 28.1067 92.1156 28.16 91.7156 28.16H91.5956C91.0356 28.16 90.7556 28 90.7556 27.68C90.7556 27.28 91.0356 27.08 91.5956 27.08C91.6756 27.08 92.009 27.1067 92.5956 27.16C93.1823 27.2133 93.5956 27.24 93.8356 27.24C94.6623 27.24 95.209 26.9733 95.4756 26.44C95.6623 26.0933 95.769 25.4533 95.7956 24.52L95.8756 21.52L95.7956 4.8C95.769 3.86667 95.6623 3.22667 95.4756 2.88C95.209 2.34667 94.6623 2.08 93.8356 2.08C93.5956 2.08 93.2223 2.10667 92.7156 2.16C92.2356 2.18667 91.8756 2.2 91.6356 2.2C91.049 2.2 90.7556 2.02666 90.7556 1.68C90.7556 1.33333 91.0356 1.16 91.5956 1.16H91.7156L92.6356 1.24C94.4756 1.4 95.5556 1.48 95.8756 1.48H96.9956C97.289 1.48 98.4356 1.41333 100.436 1.28C101.636 1.2 102.716 1.16 103.676 1.16C106.102 1.16 108.049 1.42667 109.516 1.96C111.009 2.46667 112.276 3.30667 113.316 4.48C115.582 7.06667 116.716 10.4933 116.716 14.76C116.716 18.04 115.996 20.8533 114.556 23.2C113.116 25.52 111.209 26.9867 108.836 27.6C107.396 27.9733 105.636 28.16 103.556 28.16C102.809 28.16 101.702 28.1067 100.236 28C98.7956 27.8933 97.7156 27.84 96.9956 27.84ZM103.236 2.08C102.249 2.08 101.516 2.10667 101.036 2.16L98.9156 2.4C98.249 2.48 97.7956 2.6 97.5556 2.76C97.3423 2.92 97.209 3.21333 97.1556 3.64C97.049 4.62667 96.9956 5.81333 96.9956 7.2V24.84C96.9956 25.9333 97.329 26.6133 97.9956 26.88C98.689 27.1467 100.462 27.28 103.316 27.28C105.662 27.28 107.476 27.08 108.756 26.68C110.622 26.0933 112.142 24.9467 113.316 23.24C114.756 21.16 115.476 18.4267 115.476 15.04C115.476 11.76 114.902 9.06667 113.756 6.96C112.636 4.85333 111.022 3.48 108.916 2.84C107.289 2.33333 105.396 2.08 103.236 2.08ZM131.937 0.559998C135.404 0.559998 138.217 1.86667 140.377 4.48C142.537 7.06667 143.617 10.4667 143.617 14.68C143.617 18.8667 142.577 22.2667 140.497 24.88C138.417 27.4667 135.697 28.76 132.337 28.76C128.791 28.76 125.937 27.48 123.777 24.92C121.644 22.3333 120.577 18.9333 120.577 14.72C120.577 10.5333 121.631 7.13333 123.737 4.52C125.844 1.88 128.577 0.559998 131.937 0.559998ZM132.097 27.88C135.191 27.88 137.671 26.68 139.537 24.28C141.431 21.8533 142.377 18.6667 142.377 14.72C142.377 10.8267 141.391 7.65333 139.417 5.2C137.471 2.72 134.951 1.48 131.857 1.48C128.871 1.48 126.444 2.70666 124.577 5.16C122.711 7.58667 121.777 10.7333 121.777 14.6C121.777 18.6267 122.711 21.8533 124.577 24.28C126.471 26.68 128.977 27.88 132.097 27.88ZM158.851 0.559998C162.318 0.559998 165.131 1.86667 167.291 4.48C169.451 7.06667 170.531 10.4667 170.531 14.68C170.531 18.8667 169.491 22.2667 167.411 24.88C165.331 27.4667 162.611 28.76 159.251 28.76C155.705 28.76 152.851 27.48 150.691 24.92C148.558 22.3333 147.491 18.9333 147.491 14.72C147.491 10.5333 148.545 7.13333 150.651 4.52C152.758 1.88 155.491 0.559998 158.851 0.559998ZM159.011 27.88C162.105 27.88 164.585 26.68 166.451 24.28C168.345 21.8533 169.291 18.6667 169.291 14.72C169.291 10.8267 168.305 7.65333 166.331 5.2C164.385 2.72 161.865 1.48 158.771 1.48C155.785 1.48 153.358 2.70666 151.491 5.16C149.625 7.58667 148.691 10.7333 148.691 14.6C148.691 18.6267 149.625 21.8533 151.491 24.28C153.385 26.68 155.891 27.88 159.011 27.88Z" fill="black"/>
</svg>
